<svg width="642" height="182" viewBox="0 0 642 182" fill="none" xmlns="http://www.w3.org/2000/svg">
<path d="M201.072 15.192C200.069 15.192 199.221 14.9733 198.528 14.536C197.834 14.0987 197.306 13.512 196.944 12.776C196.581 12.0293 196.4 11.1973 196.4 10.28C196.4 9.42667 196.533 8.60533 196.8 7.816C197.066 7.016 197.456 6.30133 197.968 5.672C198.49 5.032 199.125 4.53067 199.872 4.168C200.618 3.79467 201.472 3.608 202.432 3.608C203.434 3.608 204.282 3.82667 204.976 4.264C205.669 4.70133 206.197 5.29333 206.56 6.04C206.922 6.776 207.104 7.60267 207.104 8.52C207.104 9.37333 206.97 10.2 206.704 11C206.437 11.7893 206.042 12.504 205.52 13.144C205.008 13.7733 204.378 14.2747 203.632 14.648C202.885 15.0107 202.032 15.192 201.072 15.192ZM202.304 4.92C201.621 4.92 201.008 5.064 200.464 5.352C199.93 5.64 199.477 6.03467 199.104 6.536C198.73 7.03733 198.442 7.60267 198.24 8.232C198.048 8.86133 197.952 9.512 197.952 10.184C197.952 10.8667 198.074 11.4907 198.32 12.056C198.565 12.6107 198.928 13.0533 199.408 13.384C199.898 13.7147 200.496 13.88 201.2 13.88C201.882 13.88 202.49 13.736 203.024 13.448C203.568 13.16 204.026 12.7653 204.4 12.264C204.773 11.7627 205.056 11.1973 205.248 10.568C205.45 9.93867 205.552 9.288 205.552 8.616C205.552 7.93333 205.429 7.31467 205.184 6.76C204.938 6.19467 204.576 5.74667 204.096 5.416C203.616 5.08533 203.018 4.92 202.304 4.92ZM209.25 3.944L210.77 3.624L212.706 13.336L217.794 3.672L219.138 4.408L213.33 15H211.586L209.25 3.944ZM222.051 3.8H228.691L228.467 5.112H223.331L222.739 8.52H227.139L226.915 9.8H222.515L221.827 13.688H226.947L226.723 15H220.083L222.051 3.8ZM231.987 3.96C232.467 3.87467 232.915 3.80533 233.331 3.752C233.757 3.69867 234.253 3.672 234.819 3.672C235.629 3.672 236.312 3.8 236.867 4.056C237.421 4.312 237.843 4.65867 238.131 5.096C238.419 5.52267 238.563 5.99733 238.563 6.52C238.563 7.49067 238.253 8.22133 237.635 8.712C237.016 9.20267 236.2 9.52267 235.187 9.672C235.624 9.864 235.965 10.104 236.211 10.392C236.456 10.6693 236.648 10.9627 236.787 11.272C236.925 11.5813 237.037 11.8853 237.123 12.184C237.219 12.4827 237.32 12.7547 237.427 13C237.533 13.2453 237.683 13.4427 237.875 13.592C238.077 13.7307 238.355 13.8 238.707 13.8L238.147 15.112C237.677 15.112 237.299 15.0213 237.011 14.84C236.723 14.6587 236.488 14.424 236.307 14.136C236.136 13.8373 235.981 13.512 235.843 13.16C235.715 12.7973 235.576 12.44 235.427 12.088C235.277 11.7253 235.085 11.4 234.851 11.112C234.616 10.8133 234.301 10.5733 233.907 10.392C233.523 10.2107 233.027 10.12 232.419 10.12L231.555 15H230.035L231.987 3.96ZM234.723 4.936C234.445 4.936 234.189 4.94667 233.955 4.968C233.731 4.98933 233.517 5.02133 233.315 5.064L232.643 8.84H233.971C234.909 8.84 235.656 8.648 236.211 8.264C236.776 7.88 237.059 7.36267 237.059 6.712C237.059 6.18933 236.851 5.76267 236.435 5.432C236.029 5.10133 235.459 4.936 234.723 4.936ZM249.233 9.752L249.425 8.584H249.937C250.983 8.584 251.82 8.39733 252.449 8.024C253.079 7.64 253.393 7.12267 253.393 6.472C253.393 5.98133 253.223 5.592 252.881 5.304C252.551 5.00533 252.124 4.856 251.601 4.856C251.111 4.856 250.689 4.936 250.337 5.096C249.985 5.24533 249.671 5.42133 249.393 5.624L248.833 4.536C249.207 4.26933 249.633 4.05067 250.113 3.88C250.604 3.69867 251.159 3.608 251.777 3.608C252.428 3.608 252.983 3.73067 253.441 3.976C253.911 4.22133 254.268 4.54667 254.513 4.952C254.759 5.34667 254.881 5.77333 254.881 6.232C254.881 6.97867 254.663 7.58667 254.225 8.056C253.788 8.51467 253.148 8.872 252.305 9.128C252.977 9.36267 253.495 9.70933 253.857 10.168C254.22 10.6267 254.401 11.1707 254.401 11.8C254.401 12.4827 254.225 13.08 253.873 13.592C253.521 14.104 253.036 14.4987 252.417 14.776C251.809 15.0533 251.111 15.192 250.321 15.192C249.713 15.192 249.137 15.112 248.593 14.952C248.06 14.7813 247.607 14.552 247.233 14.264L248.081 13.128C248.348 13.352 248.668 13.5387 249.041 13.688C249.415 13.8373 249.841 13.912 250.321 13.912C251.047 13.912 251.649 13.736 252.129 13.384C252.609 13.032 252.849 12.5253 252.849 11.864C252.849 11.2773 252.62 10.7813 252.161 10.376C251.703 9.96 250.999 9.752 250.049 9.752H249.233ZM261.707 15.192C260.64 15.192 259.824 14.8187 259.259 14.072C258.704 13.3147 258.427 12.2907 258.427 11C258.427 10.104 258.523 9.21867 258.715 8.344C258.907 7.45867 259.2 6.664 259.595 5.96C259.99 5.24533 260.491 4.67467 261.099 4.248C261.718 3.82133 262.443 3.608 263.275 3.608C264.342 3.608 265.152 3.98667 265.707 4.744C266.272 5.49067 266.555 6.50933 266.555 7.8C266.555 8.696 266.459 9.58667 266.267 10.472C266.075 11.3467 265.782 12.1413 265.387 12.856C264.992 13.56 264.486 14.1253 263.867 14.552C263.259 14.9787 262.539 15.192 261.707 15.192ZM261.867 13.88C262.379 13.88 262.827 13.7147 263.211 13.384C263.606 13.0427 263.936 12.584 264.203 12.008C264.47 11.432 264.667 10.776 264.795 10.04C264.934 9.29333 265.003 8.51467 265.003 7.704C265.003 6.808 264.843 6.12 264.523 5.64C264.214 5.16 263.744 4.92 263.115 4.92C262.603 4.92 262.15 5.09067 261.755 5.432C261.371 5.76267 261.046 6.216 260.779 6.792C260.512 7.368 260.31 8.02933 260.171 8.776C260.043 9.512 259.979 10.2853 259.979 11.096C259.979 11.992 260.139 12.68 260.459 13.16C260.779 13.64 261.248 13.88 261.867 13.88ZM272.581 15.192C271.514 15.192 270.698 14.8187 270.133 14.072C269.578 13.3147 269.301 12.2907 269.301 11C269.301 10.104 269.397 9.21867 269.589 8.344C269.781 7.45867 270.074 6.664 270.469 5.96C270.863 5.24533 271.365 4.67467 271.973 4.248C272.591 3.82133 273.317 3.608 274.149 3.608C275.215 3.608 276.026 3.98667 276.581 4.744C277.146 5.49067 277.429 6.50933 277.429 7.8C277.429 8.696 277.333 9.58667 277.141 10.472C276.949 11.3467 276.655 12.1413 276.261 12.856C275.866 13.56 275.359 14.1253 274.741 14.552C274.133 14.9787 273.413 15.192 272.581 15.192ZM272.741 13.88C273.253 13.88 273.701 13.7147 274.085 13.384C274.479 13.0427 274.81 12.584 275.077 12.008C275.343 11.432 275.541 10.776 275.669 10.04C275.807 9.29333 275.877 8.51467 275.877 7.704C275.877 6.808 275.717 6.12 275.397 5.64C275.087 5.16 274.618 4.92 273.989 4.92C273.477 4.92 273.023 5.09067 272.629 5.432C272.245 5.76267 271.919 6.216 271.653 6.792C271.386 7.368 271.183 8.02933 271.045 8.776C270.917 9.512 270.853 10.2853 270.853 11.096C270.853 11.992 271.013 12.68 271.333 13.16C271.653 13.64 272.122 13.88 272.741 13.88ZM284.75 10.136L284.286 12.728H282.926L283.39 10.136H280.942L281.15 8.888H283.598L284.062 6.28H285.422L284.958 8.888H287.39L287.182 10.136H284.75ZM304.661 9.896H299.317L298.421 15H296.901L298.869 3.8H300.389L299.541 8.584H304.885L305.733 3.8H307.253L305.285 15H303.765L304.661 9.896ZM309.4 15L311.368 3.8H312.888L310.92 15H309.4ZM316.991 3.96C317.471 3.87467 317.919 3.80533 318.335 3.752C318.762 3.69867 319.258 3.672 319.823 3.672C320.634 3.672 321.317 3.8 321.871 4.056C322.426 4.312 322.847 4.65867 323.135 5.096C323.423 5.52267 323.567 5.99733 323.567 6.52C323.567 7.49067 323.258 8.22133 322.639 8.712C322.021 9.20267 321.205 9.52267 320.191 9.672C320.629 9.864 320.97 10.104 321.215 10.392C321.461 10.6693 321.653 10.9627 321.791 11.272C321.93 11.5813 322.042 11.8853 322.127 12.184C322.223 12.4827 322.325 12.7547 322.431 13C322.538 13.2453 322.687 13.4427 322.879 13.592C323.082 13.7307 323.359 13.8 323.711 13.8L323.151 15.112C322.682 15.112 322.303 15.0213 322.015 14.84C321.727 14.6587 321.493 14.424 321.311 14.136C321.141 13.8373 320.986 13.512 320.847 13.16C320.719 12.7973 320.581 12.44 320.431 12.088C320.282 11.7253 320.09 11.4 319.855 11.112C319.621 10.8133 319.306 10.5733 318.911 10.392C318.527 10.2107 318.031 10.12 317.423 10.12L316.559 15H315.039L316.991 3.96ZM319.727 4.936C319.45 4.936 319.194 4.94667 318.959 4.968C318.735 4.98933 318.522 5.02133 318.319 5.064L317.647 8.84H318.975C319.914 8.84 320.661 8.648 321.215 8.264C321.781 7.88 322.063 7.36267 322.063 6.712C322.063 6.18933 321.855 5.76267 321.439 5.432C321.034 5.10133 320.463 4.936 319.727 4.936ZM326.257 15L328.225 3.8H329.745L327.777 15H326.257ZM334.968 5.656L333.336 15H331.896L333.864 3.8H335.88L339.16 13.208L340.824 3.8H342.264L340.296 15H338.312L334.968 5.656ZM350.298 4.936C349.498 4.936 348.778 5.17067 348.138 5.64C347.498 6.10933 346.992 6.76 346.618 7.592C346.245 8.424 346.058 9.384 346.058 10.472C346.058 11.4747 346.298 12.2907 346.778 12.92C347.258 13.5493 347.92 13.864 348.762 13.864C349.253 13.864 349.706 13.7413 350.122 13.496C350.538 13.2507 350.89 12.9147 351.178 12.488C351.466 12.0613 351.658 11.5813 351.754 11.048L351.898 10.264H349.562L349.77 9.064H353.53L352.906 12.664C352.896 12.7173 352.885 12.7813 352.874 12.856C352.874 12.92 352.874 12.9893 352.874 13.064C352.874 13.352 352.954 13.56 353.114 13.688C353.285 13.816 353.52 13.88 353.818 13.88L353.29 15.08C352.117 15.08 351.53 14.5093 351.53 13.368C351.2 13.88 350.773 14.312 350.25 14.664C349.728 15.016 349.093 15.192 348.346 15.192C347.61 15.192 346.949 15.016 346.362 14.664C345.786 14.3013 345.328 13.784 344.986 13.112C344.656 12.4293 344.49 11.6187 344.49 10.68C344.49 9.66667 344.634 8.728 344.922 7.864C345.21 7 345.616 6.25333 346.138 5.624C346.661 4.984 347.28 4.488 347.994 4.136C348.72 3.784 349.514 3.608 350.378 3.608C351.061 3.608 351.664 3.704 352.186 3.896C352.709 4.07733 353.189 4.312 353.626 4.6L352.826 5.816C352.442 5.54933 352.053 5.336 351.658 5.176C351.274 5.016 350.821 4.936 350.298 4.936ZM364.297 3.96C364.702 3.87467 365.134 3.80533 365.593 3.752C366.062 3.69867 366.58 3.672 367.145 3.672C368.009 3.672 368.729 3.82667 369.305 4.136C369.881 4.43467 370.308 4.83467 370.585 5.336C370.873 5.82667 371.017 6.35467 371.017 6.92C371.017 7.79467 370.804 8.53067 370.377 9.128C369.95 9.71467 369.364 10.1627 368.617 10.472C367.87 10.7707 367.022 10.92 366.073 10.92C365.817 10.92 365.561 10.9093 365.305 10.888C365.06 10.856 364.83 10.8133 364.617 10.76L363.881 15H362.361L364.297 3.96ZM366.985 4.936C366.697 4.936 366.441 4.94667 366.217 4.968C366.004 4.98933 365.806 5.016 365.625 5.048L364.841 9.48C365.054 9.544 365.284 9.592 365.529 9.624C365.785 9.64533 366.036 9.656 366.281 9.656C367.422 9.656 368.249 9.416 368.761 8.936C369.273 8.456 369.529 7.84267 369.529 7.096C369.529 6.46667 369.305 5.94933 368.857 5.544C368.42 5.13867 367.796 4.936 366.985 4.936ZM370.99 14.408L377.134 3.8H378.846L381.294 14.824L379.838 15.16L379.166 11.96H373.982L372.206 15.128L370.99 14.408ZM374.702 10.68H378.894L377.758 5.288L374.702 10.68ZM385.951 3.96C386.431 3.87467 386.879 3.80533 387.295 3.752C387.722 3.69867 388.218 3.672 388.783 3.672C389.594 3.672 390.277 3.8 390.831 4.056C391.386 4.312 391.807 4.65867 392.095 5.096C392.383 5.52267 392.527 5.99733 392.527 6.52C392.527 7.49067 392.218 8.22133 391.599 8.712C390.981 9.20267 390.165 9.52267 389.151 9.672C389.589 9.864 389.93 10.104 390.175 10.392C390.421 10.6693 390.613 10.9627 390.751 11.272C390.89 11.5813 391.002 11.8853 391.087 12.184C391.183 12.4827 391.285 12.7547 391.391 13C391.498 13.2453 391.647 13.4427 391.839 13.592C392.042 13.7307 392.319 13.8 392.671 13.8L392.111 15.112C391.642 15.112 391.263 15.0213 390.975 14.84C390.687 14.6587 390.453 14.424 390.271 14.136C390.101 13.8373 389.946 13.512 389.807 13.16C389.679 12.7973 389.541 12.44 389.391 12.088C389.242 11.7253 389.05 11.4 388.815 11.112C388.581 10.8133 388.266 10.5733 387.871 10.392C387.487 10.2107 386.991 10.12 386.383 10.12L385.519 15H383.999L385.951 3.96ZM388.687 4.936C388.41 4.936 388.154 4.94667 387.919 4.968C387.695 4.98933 387.482 5.02133 387.279 5.064L386.607 8.84H387.935C388.874 8.84 389.621 8.648 390.175 8.264C390.741 7.88 391.023 7.36267 391.023 6.712C391.023 6.18933 390.815 5.76267 390.399 5.432C389.994 5.10133 389.423 4.936 388.687 4.936ZM395.376 3.8H403.776L403.536 5.144H400.096L398.368 15H396.848L398.576 5.144H395.136L395.376 3.8ZM407.787 5.656L406.155 15H404.715L406.683 3.8H408.699L411.979 13.208L413.643 3.8H415.083L413.115 15H411.131L407.787 5.656ZM419.198 3.8H425.838L425.614 5.112H420.478L419.886 8.52H424.286L424.062 9.8H419.662L418.974 13.688H424.094L423.87 15H417.23L419.198 3.8ZM429.134 3.96C429.614 3.87467 430.062 3.80533 430.478 3.752C430.904 3.69867 431.4 3.672 431.966 3.672C432.776 3.672 433.459 3.8 434.014 4.056C434.568 4.312 434.99 4.65867 435.278 5.096C435.566 5.52267 435.71 5.99733 435.71 6.52C435.71 7.49067 435.4 8.22133 434.782 8.712C434.163 9.20267 433.347 9.52267 432.334 9.672C432.771 9.864 433.112 10.104 433.358 10.392C433.603 10.6693 433.795 10.9627 433.934 11.272C434.072 11.5813 434.184 11.8853 434.27 12.184C434.366 12.4827 434.467 12.7547 434.574 13C434.68 13.2453 434.83 13.4427 435.022 13.592C435.224 13.7307 435.502 13.8 435.854 13.8L435.294 15.112C434.824 15.112 434.446 15.0213 434.158 14.84C433.87 14.6587 433.635 14.424 433.454 14.136C433.283 13.8373 433.128 13.512 432.99 13.16C432.862 12.7973 432.723 12.44 432.574 12.088C432.424 11.7253 432.232 11.4 431.998 11.112C431.763 10.8133 431.448 10.5733 431.054 10.392C430.67 10.2107 430.174 10.12 429.566 10.12L428.702 15H427.182L429.134 3.96ZM431.87 4.936C431.592 4.936 431.336 4.94667 431.102 4.968C430.878 4.98933 430.664 5.02133 430.462 5.064L429.79 8.84H431.118C432.056 8.84 432.803 8.648 433.358 8.264C433.923 7.88 434.206 7.36267 434.206 6.712C434.206 6.18933 433.998 5.76267 433.582 5.432C433.176 5.10133 432.606 4.936 431.87 4.936ZM443.903 12.168C443.903 11.8693 443.839 11.5973 443.711 11.352C443.594 11.1067 443.375 10.856 443.055 10.6C442.735 10.3333 442.277 10.0347 441.679 9.704C440.847 9.23467 440.255 8.77067 439.903 8.312C439.562 7.85333 439.391 7.26667 439.391 6.552C439.391 5.95467 439.546 5.43733 439.855 5C440.175 4.56267 440.618 4.22133 441.183 3.976C441.749 3.73067 442.399 3.608 443.135 3.608C443.807 3.608 444.415 3.69333 444.959 3.864C445.503 4.024 446.01 4.24267 446.479 4.52L445.695 5.768C445.311 5.52267 444.906 5.32 444.479 5.16C444.063 5 443.573 4.92 443.007 4.92C442.378 4.92 441.871 5.05867 441.487 5.336C441.103 5.60267 440.911 5.95467 440.911 6.392C440.911 6.78667 441.045 7.13867 441.311 7.448C441.589 7.74667 442.095 8.09333 442.831 8.488C443.535 8.86133 444.074 9.22933 444.447 9.592C444.831 9.944 445.093 10.3173 445.231 10.712C445.381 11.1067 445.455 11.544 445.455 12.024C445.455 12.6747 445.285 13.24 444.943 13.72C444.613 14.1893 444.149 14.552 443.551 14.808C442.954 15.064 442.261 15.192 441.471 15.192C440.703 15.192 440.01 15.0907 439.391 14.888C438.773 14.6747 438.229 14.3813 437.759 14.008L438.751 12.776C439.114 13.1067 439.535 13.3733 440.015 13.576C440.506 13.768 441.045 13.864 441.631 13.864C442.325 13.864 442.874 13.7147 443.279 13.416C443.695 13.1067 443.903 12.6907 443.903 12.168Z" fill="url(#paint0_linear_0_1328)"/>
<path d="M76.4734 40.6H98.5234L97.8934 44.128H88.8634L84.3274 70H80.3374L84.8734 44.128H75.8434L76.4734 40.6ZM103.753 70.504C101.681 70.504 99.889 70.084 98.377 69.244C96.865 68.404 95.689 67.242 94.849 65.758C94.037 64.246 93.631 62.538 93.631 60.634C93.631 58.198 94.121 56 95.101 54.04C96.109 52.08 97.509 50.526 99.301 49.378C101.093 48.23 103.207 47.656 105.643 47.656C107.715 47.656 109.507 48.076 111.019 48.916C112.531 49.756 113.693 50.918 114.505 52.402C115.345 53.886 115.765 55.594 115.765 57.526C115.765 59.934 115.275 62.132 114.295 64.12C113.315 66.08 111.915 67.634 110.095 68.782C108.303 69.93 106.189 70.504 103.753 70.504ZM103.879 67.144C105.559 67.144 106.987 66.738 108.163 65.926C109.367 65.086 110.291 63.966 110.935 62.566C111.579 61.166 111.901 59.598 111.901 57.862C111.901 56.574 111.649 55.426 111.145 54.418C110.641 53.382 109.913 52.556 108.961 51.94C108.009 51.324 106.861 51.016 105.517 51.016C103.865 51.016 102.437 51.436 101.233 52.276C100.029 53.088 99.105 54.194 98.461 55.594C97.817 56.994 97.495 58.562 97.495 60.298C97.495 61.558 97.747 62.706 98.251 63.742C98.755 64.778 99.483 65.604 100.435 66.22C101.387 66.836 102.535 67.144 103.879 67.144ZM120.541 48.16C123.453 48.16 124.909 49.42 124.909 51.94V52.822C125.721 51.31 126.771 50.078 128.059 49.126C129.347 48.146 130.845 47.656 132.553 47.656C134.065 47.656 135.381 48.048 136.501 48.832C137.621 49.588 138.475 50.652 139.063 52.024C139.679 53.368 139.987 54.936 139.987 56.728C139.987 58.8 139.679 60.69 139.063 62.398C138.475 64.078 137.663 65.534 136.627 66.766C135.591 67.97 134.429 68.894 133.141 69.538C131.853 70.182 130.523 70.504 129.151 70.504C127.807 70.504 126.547 70.168 125.371 69.496C124.223 68.824 123.327 67.998 122.683 67.018L120.541 79.24H116.761L121.129 54.25C121.213 53.774 121.255 53.382 121.255 53.074C121.255 51.758 120.569 51.1 119.197 51.1L120.541 48.16ZM128.815 67.144C130.131 67.144 131.335 66.724 132.427 65.884C133.547 65.016 134.443 63.826 135.115 62.314C135.787 60.802 136.123 59.066 136.123 57.106C136.123 55.202 135.689 53.704 134.821 52.612C133.953 51.492 132.819 50.932 131.419 50.932C130.299 50.932 129.221 51.282 128.185 51.982C127.177 52.682 126.309 53.662 125.581 54.922C124.853 56.182 124.335 57.666 124.027 59.374L123.271 63.616C123.887 64.736 124.685 65.604 125.665 66.22C126.645 66.836 127.695 67.144 128.815 67.144ZM169.276 62.566C169.276 61.782 169.108 61.068 168.772 60.424C168.464 59.78 167.89 59.122 167.05 58.45C166.21 57.75 165.006 56.966 163.438 56.098C161.254 54.866 159.7 53.648 158.776 52.444C157.88 51.24 157.432 49.7 157.432 47.824C157.432 46.256 157.838 44.898 158.65 43.75C159.49 42.602 160.652 41.706 162.136 41.062C163.62 40.418 165.328 40.096 167.26 40.096C169.024 40.096 170.62 40.32 172.048 40.768C173.476 41.188 174.806 41.762 176.038 42.49L173.98 45.766C172.972 45.122 171.908 44.59 170.788 44.17C169.696 43.75 168.408 43.54 166.924 43.54C165.272 43.54 163.942 43.904 162.934 44.632C161.926 45.332 161.422 46.256 161.422 47.404C161.422 48.44 161.772 49.364 162.472 50.176C163.2 50.96 164.53 51.87 166.462 52.906C168.31 53.886 169.724 54.852 170.704 55.804C171.712 56.728 172.398 57.708 172.762 58.744C173.154 59.78 173.35 60.928 173.35 62.188C173.35 63.896 172.902 65.38 172.006 66.64C171.138 67.872 169.92 68.824 168.352 69.496C166.784 70.168 164.964 70.504 162.892 70.504C160.876 70.504 159.056 70.238 157.432 69.706C155.808 69.146 154.38 68.376 153.148 67.396L155.752 64.162C156.704 65.03 157.81 65.73 159.07 66.262C160.358 66.766 161.772 67.018 163.312 67.018C165.132 67.018 166.574 66.626 167.638 65.842C168.73 65.03 169.276 63.938 169.276 62.566ZM176.769 48.958H180.633L182.649 42.07H185.547L184.329 48.958H190.377L189.831 52.234H183.741L181.977 62.44C181.921 62.748 181.879 63.042 181.851 63.322C181.823 63.574 181.809 63.812 181.809 64.036C181.809 65.016 182.103 65.786 182.691 66.346C183.279 66.878 184.049 67.144 185.001 67.144C185.813 67.144 186.499 67.032 187.059 66.808C187.619 66.556 188.123 66.304 188.571 66.052L189.033 69.328C188.501 69.636 187.829 69.902 187.017 70.126C186.233 70.378 185.351 70.504 184.371 70.504C183.335 70.504 182.327 70.294 181.347 69.874C180.395 69.454 179.611 68.796 178.995 67.9C178.379 66.976 178.071 65.786 178.071 64.33C178.071 63.714 178.127 63.028 178.239 62.272L179.961 52.234H176.223L176.769 48.958ZM191.379 61.39C191.379 58.674 191.967 56.294 193.143 54.25C194.347 52.178 195.999 50.568 198.099 49.42C200.199 48.244 202.593 47.656 205.281 47.656C206.933 47.656 208.375 47.824 209.607 48.16C210.867 48.496 211.903 48.832 212.715 49.168L210.069 64.078C210.041 64.218 210.013 64.386 209.985 64.582C209.985 64.75 209.985 64.932 209.985 65.128C209.985 65.912 210.209 66.472 210.657 66.808C211.105 67.116 211.693 67.27 212.421 67.27L211.119 70.21C209.607 70.21 208.445 69.846 207.633 69.118C206.849 68.362 206.457 67.2 206.457 65.632C205.673 66.976 204.679 68.124 203.475 69.076C202.299 70.028 200.913 70.504 199.317 70.504C197.945 70.504 196.657 70.14 195.453 69.412C194.249 68.656 193.269 67.606 192.513 66.262C191.757 64.89 191.379 63.266 191.379 61.39ZM208.557 51.394C208.025 51.226 207.465 51.1 206.877 51.016C206.317 50.904 205.631 50.848 204.819 50.848C202.887 50.848 201.207 51.282 199.779 52.15C198.351 53.018 197.231 54.222 196.419 55.762C195.635 57.274 195.243 58.996 195.243 60.928C195.243 62.272 195.481 63.406 195.957 64.33C196.461 65.254 197.105 65.954 197.889 66.43C198.673 66.906 199.485 67.144 200.325 67.144C201.473 67.144 202.523 66.752 203.475 65.968C204.427 65.184 205.239 64.092 205.911 62.692C206.611 61.292 207.115 59.696 207.423 57.904L208.557 51.394ZM219.007 54.292C219.035 54.152 219.049 53.998 219.049 53.83C219.077 53.634 219.091 53.438 219.091 53.242C219.091 52.458 218.867 51.912 218.419 51.604C217.971 51.268 217.383 51.1 216.655 51.1L217.957 48.16C219.441 48.16 220.575 48.524 221.359 49.252C222.171 49.952 222.577 51.002 222.577 52.402V53.242C223.389 51.254 224.425 49.826 225.685 48.958C226.973 48.09 228.429 47.656 230.053 47.656C230.697 47.656 231.243 47.712 231.691 47.824C232.167 47.908 232.559 48.02 232.867 48.16L231.187 51.856C230.851 51.716 230.501 51.618 230.137 51.562C229.773 51.506 229.353 51.478 228.877 51.478C227.869 51.478 226.861 51.842 225.853 52.57C224.873 53.27 223.977 54.446 223.165 56.098C222.381 57.75 221.737 60.018 221.233 62.902L220.015 70H216.235L219.007 54.292ZM233.573 48.958H237.437L239.453 42.07H242.351L241.133 48.958H247.181L246.635 52.234H240.545L238.781 62.44C238.725 62.748 238.683 63.042 238.655 63.322C238.627 63.574 238.613 63.812 238.613 64.036C238.613 65.016 238.907 65.786 239.495 66.346C240.083 66.878 240.853 67.144 241.805 67.144C242.617 67.144 243.303 67.032 243.863 66.808C244.423 66.556 244.927 66.304 245.375 66.052L245.837 69.328C245.305 69.636 244.633 69.902 243.821 70.126C243.037 70.378 242.155 70.504 241.175 70.504C240.139 70.504 239.131 70.294 238.151 69.874C237.199 69.454 236.415 68.796 235.799 67.9C235.183 66.976 234.875 65.786 234.875 64.33C234.875 63.714 234.931 63.028 235.043 62.272L236.765 52.234H233.027L233.573 48.958ZM254.982 70.504C253.862 70.504 252.826 70.252 251.874 69.748C250.95 69.244 250.208 68.544 249.648 67.648C249.088 66.724 248.808 65.632 248.808 64.372C248.808 64.008 248.822 63.644 248.85 63.28C248.878 62.888 248.92 62.482 248.976 62.062L251.37 48.16H255.15L252.714 61.978C252.686 62.258 252.658 62.51 252.63 62.734C252.602 62.93 252.588 63.154 252.588 63.406C252.588 64.666 252.952 65.604 253.68 66.22C254.408 66.836 255.262 67.144 256.242 67.144C257.306 67.144 258.342 66.822 259.35 66.178C260.386 65.506 261.296 64.554 262.08 63.322C262.864 62.09 263.41 60.606 263.718 58.87L265.608 48.16H269.388L266.616 64.078C266.588 64.218 266.56 64.386 266.532 64.582C266.532 64.75 266.532 64.932 266.532 65.128C266.532 65.912 266.756 66.472 267.204 66.808C267.652 67.116 268.24 67.27 268.968 67.27L267.666 70.21C266.154 70.21 264.992 69.846 264.18 69.118C263.396 68.362 263.004 67.2 263.004 65.632V65.254C260.96 68.754 258.286 70.504 254.982 70.504ZM274.6 48.16C277.512 48.16 278.968 49.42 278.968 51.94V52.822C279.78 51.31 280.83 50.078 282.118 49.126C283.406 48.146 284.904 47.656 286.612 47.656C288.124 47.656 289.44 48.048 290.56 48.832C291.68 49.588 292.534 50.652 293.122 52.024C293.738 53.368 294.046 54.936 294.046 56.728C294.046 58.8 293.738 60.69 293.122 62.398C292.534 64.078 291.722 65.534 290.686 66.766C289.65 67.97 288.488 68.894 287.2 69.538C285.912 70.182 284.582 70.504 283.21 70.504C281.866 70.504 280.606 70.168 279.43 69.496C278.282 68.824 277.386 67.998 276.742 67.018L274.6 79.24H270.82L275.188 54.25C275.272 53.774 275.314 53.382 275.314 53.074C275.314 51.758 274.628 51.1 273.256 51.1L274.6 48.16ZM282.874 67.144C284.19 67.144 285.394 66.724 286.486 65.884C287.606 65.016 288.502 63.826 289.174 62.314C289.846 60.802 290.182 59.066 290.182 57.106C290.182 55.202 289.748 53.704 288.88 52.612C288.012 51.492 286.878 50.932 285.478 50.932C284.358 50.932 283.28 51.282 282.244 51.982C281.236 52.682 280.368 53.662 279.64 54.922C278.912 56.182 278.394 57.666 278.086 59.374L277.33 63.616C277.946 64.736 278.744 65.604 279.724 66.22C280.704 66.836 281.754 67.144 282.874 67.144ZM312.004 52.906C311.192 52.346 310.282 51.856 309.274 51.436C308.294 51.016 307.174 50.806 305.914 50.806C304.598 50.806 303.576 51.03 302.848 51.478C302.12 51.926 301.756 52.514 301.756 53.242C301.756 53.662 301.868 54.068 302.092 54.46C302.344 54.824 302.778 55.216 303.394 55.636C304.038 56.056 304.934 56.56 306.082 57.148C307.986 58.1 309.4 59.094 310.324 60.13C311.248 61.138 311.71 62.384 311.71 63.868C311.71 65.352 311.318 66.584 310.534 67.564C309.75 68.544 308.7 69.286 307.384 69.79C306.068 70.266 304.584 70.504 302.932 70.504C301.224 70.504 299.712 70.294 298.396 69.874C297.108 69.426 295.988 68.852 295.036 68.152L297.178 65.044C297.934 65.66 298.83 66.178 299.866 66.598C300.902 67.018 302.036 67.228 303.268 67.228C304.668 67.228 305.774 66.962 306.586 66.43C307.398 65.898 307.804 65.24 307.804 64.456C307.804 63.728 307.496 63.056 306.88 62.44C306.292 61.824 305.13 61.082 303.394 60.214C301.994 59.514 300.902 58.842 300.118 58.198C299.334 57.526 298.788 56.812 298.48 56.056C298.172 55.3 298.018 54.432 298.018 53.452C298.018 52.332 298.354 51.338 299.026 50.47C299.698 49.602 300.636 48.916 301.84 48.412C303.044 47.908 304.43 47.656 305.998 47.656C307.566 47.656 308.966 47.866 310.198 48.286C311.458 48.678 312.564 49.154 313.516 49.714L312.004 52.906ZM350.65 56.266C350.314 59.43 349.516 62.076 348.256 64.204C347.024 66.304 345.428 67.886 343.468 68.95C341.508 69.986 339.31 70.504 336.874 70.504C335.166 70.504 333.612 70.182 332.212 69.538C330.812 68.894 329.706 68.012 328.894 66.892C328.082 65.772 327.676 64.484 327.676 63.028C327.676 61.04 328.278 59.29 329.482 57.778C330.686 56.266 332.534 55.09 335.026 54.25C333.598 53.382 332.562 52.458 331.918 51.478C331.302 50.47 330.994 49.28 330.994 47.908C330.994 46.312 331.414 44.94 332.254 43.792C333.122 42.616 334.256 41.706 335.656 41.062C337.084 40.418 338.652 40.096 340.36 40.096C342.012 40.096 343.482 40.334 344.77 40.81C346.058 41.258 347.22 41.846 348.256 42.574L346.156 45.64C345.456 45.08 344.616 44.576 343.636 44.128C342.656 43.68 341.564 43.456 340.36 43.456C338.848 43.456 337.532 43.89 336.412 44.758C335.32 45.598 334.774 46.774 334.774 48.286C334.774 49.126 335.04 49.924 335.572 50.68C336.104 51.436 336.846 52.052 337.798 52.528C338.75 52.976 339.842 53.2 341.074 53.2H351.91C352.862 53.2 353.618 53.088 354.178 52.864C354.738 52.612 355.228 52.248 355.648 51.772L356.698 54.46C356.278 55.104 355.69 55.566 354.934 55.846C354.206 56.126 353.31 56.266 352.246 56.266H350.65ZM337.63 67.06C340.346 67.06 342.572 66.094 344.308 64.162C346.044 62.23 347.122 59.598 347.542 56.266H340.486C338.666 56.266 337.098 56.532 335.782 57.064C334.466 57.596 333.444 58.31 332.716 59.206C332.016 60.102 331.666 61.11 331.666 62.23C331.666 63.658 332.24 64.82 333.388 65.716C334.564 66.612 335.978 67.06 337.63 67.06ZM398.007 45.43L387.129 63.364H383.223L378.309 45.262L373.983 70H370.203L375.369 40.6H380.787L385.743 59.332L396.831 40.6H402.837L397.671 70H393.681L398.007 45.43ZM412.541 45.472L408.257 70H404.477L409.643 40.6H414.935L423.545 65.296L427.913 40.6H431.693L426.527 70H421.319L412.541 45.472ZM448.625 43.582C446.581 43.582 444.733 44.198 443.081 45.43C441.429 46.634 440.113 48.3 439.133 50.428C438.153 52.528 437.663 54.95 437.663 57.694C437.663 60.718 438.405 63.028 439.889 64.624C441.373 66.22 443.263 67.018 445.559 67.018C446.875 67.018 448.037 66.836 449.045 66.472C450.081 66.108 451.089 65.674 452.069 65.17L452.741 68.782C451.705 69.258 450.557 69.664 449.297 70C448.037 70.336 446.609 70.504 445.013 70.504C442.717 70.504 440.701 70.014 438.965 69.034C437.257 68.054 435.927 66.64 434.975 64.792C434.023 62.916 433.547 60.648 433.547 57.988C433.547 55.468 433.911 53.13 434.639 50.974C435.395 48.79 436.459 46.886 437.831 45.262C439.203 43.638 440.827 42.378 442.703 41.482C444.607 40.558 446.693 40.096 448.961 40.096C450.613 40.096 452.069 40.32 453.329 40.768C454.589 41.216 455.639 41.678 456.479 42.154L454.673 45.43C453.833 44.898 452.937 44.464 451.985 44.128C451.061 43.764 449.941 43.582 448.625 43.582ZM458.729 41.44C458.729 40.572 459.037 39.858 459.653 39.298C460.269 38.71 461.039 38.416 461.963 38.416C462.831 38.416 463.531 38.682 464.063 39.214C464.595 39.746 464.861 40.502 464.861 41.482C464.861 43.022 464.315 44.464 463.223 45.808C462.159 47.152 460.857 48.188 459.317 48.916L458.645 47.446C459.373 46.998 460.045 46.466 460.661 45.85C461.277 45.206 461.725 44.478 462.005 43.666C461.725 43.75 461.431 43.792 461.123 43.792C460.423 43.792 459.849 43.568 459.401 43.12C458.953 42.672 458.729 42.112 458.729 41.44ZM480.214 52.906C479.402 52.346 478.492 51.856 477.484 51.436C476.504 51.016 475.384 50.806 474.124 50.806C472.808 50.806 471.786 51.03 471.058 51.478C470.33 51.926 469.966 52.514 469.966 53.242C469.966 53.662 470.078 54.068 470.302 54.46C470.554 54.824 470.988 55.216 471.604 55.636C472.248 56.056 473.144 56.56 474.292 57.148C476.196 58.1 477.61 59.094 478.534 60.13C479.458 61.138 479.92 62.384 479.92 63.868C479.92 65.352 479.528 66.584 478.744 67.564C477.96 68.544 476.91 69.286 475.594 69.79C474.278 70.266 472.794 70.504 471.142 70.504C469.434 70.504 467.922 70.294 466.606 69.874C465.318 69.426 464.198 68.852 463.246 68.152L465.388 65.044C466.144 65.66 467.04 66.178 468.076 66.598C469.112 67.018 470.246 67.228 471.478 67.228C472.878 67.228 473.984 66.962 474.796 66.43C475.608 65.898 476.014 65.24 476.014 64.456C476.014 63.728 475.706 63.056 475.09 62.44C474.502 61.824 473.34 61.082 471.604 60.214C470.204 59.514 469.112 58.842 468.328 58.198C467.544 57.526 466.998 56.812 466.69 56.056C466.382 55.3 466.228 54.432 466.228 53.452C466.228 52.332 466.564 51.338 467.236 50.47C467.908 49.602 468.846 48.916 470.05 48.412C471.254 47.908 472.64 47.656 474.208 47.656C475.776 47.656 477.176 47.866 478.408 48.286C479.668 48.678 480.774 49.154 481.726 49.714L480.214 52.906ZM515.5 56.602H501.472L499.12 70H495.13L500.296 40.6H504.286L502.06 53.158H516.088L518.314 40.6H522.304L517.138 70H513.148L515.5 56.602ZM530.333 44.422C529.549 44.422 528.947 44.198 528.527 43.75C528.135 43.274 527.939 42.728 527.939 42.112C527.939 41.216 528.219 40.502 528.779 39.97C529.339 39.41 530.039 39.13 530.879 39.13C531.663 39.13 532.251 39.368 532.643 39.844C533.063 40.292 533.273 40.824 533.273 41.44C533.273 42.308 532.993 43.022 532.433 43.582C531.873 44.142 531.173 44.422 530.333 44.422ZM527.519 70H523.739L527.561 48.16H531.341L527.519 70ZM537.257 54.292C537.285 54.152 537.299 53.998 537.299 53.83C537.327 53.634 537.341 53.438 537.341 53.242C537.341 52.458 537.117 51.912 536.669 51.604C536.221 51.268 535.633 51.1 534.905 51.1L536.207 48.16C537.691 48.16 538.825 48.524 539.609 49.252C540.421 49.952 540.827 51.002 540.827 52.402V53.242C541.639 51.254 542.675 49.826 543.935 48.958C545.223 48.09 546.679 47.656 548.303 47.656C548.947 47.656 549.493 47.712 549.941 47.824C550.417 47.908 550.809 48.02 551.117 48.16L549.437 51.856C549.101 51.716 548.751 51.618 548.387 51.562C548.023 51.506 547.603 51.478 547.127 51.478C546.119 51.478 545.111 51.842 544.103 52.57C543.123 53.27 542.227 54.446 541.415 56.098C540.631 57.75 539.987 60.018 539.483 62.902L538.265 70H534.485L537.257 54.292ZM559.244 70.504C557.396 70.504 555.758 70.112 554.33 69.328C552.93 68.516 551.824 67.368 551.012 65.884C550.228 64.372 549.836 62.594 549.836 60.55C549.836 58.226 550.312 56.084 551.264 54.124C552.244 52.164 553.616 50.596 555.38 49.42C557.172 48.244 559.258 47.656 561.638 47.656C563.262 47.656 564.634 47.964 565.754 48.58C566.902 49.196 567.784 49.994 568.4 50.974C569.016 51.954 569.324 53.004 569.324 54.124C569.324 55.664 568.96 56.938 568.232 57.946C567.504 58.954 566.566 59.738 565.418 60.298C564.27 60.83 563.024 61.208 561.68 61.432C560.364 61.656 559.104 61.768 557.9 61.768C557.144 61.768 556.388 61.74 555.632 61.684C554.904 61.6 554.26 61.516 553.7 61.432C553.924 63.28 554.582 64.694 555.674 65.674C556.766 66.654 558.166 67.144 559.874 67.144C561.274 67.144 562.52 66.962 563.612 66.598C564.704 66.234 565.628 65.87 566.384 65.506L566.72 68.866C565.88 69.258 564.816 69.636 563.528 70C562.24 70.336 560.812 70.504 559.244 70.504ZM561.344 50.848C560.028 50.848 558.838 51.184 557.774 51.856C556.71 52.5 555.828 53.396 555.128 54.544C554.456 55.664 554.008 56.952 553.784 58.408C554.428 58.52 555.072 58.618 555.716 58.702C556.388 58.758 557.116 58.786 557.9 58.786C560.252 58.786 562.114 58.464 563.486 57.82C564.858 57.148 565.544 56.014 565.544 54.418C565.544 53.438 565.152 52.598 564.368 51.898C563.612 51.198 562.604 50.848 561.344 50.848Z" fill="#2B2F34"/>
<path d="M164.162 125.566C164.162 124.782 163.994 124.068 163.658 123.424C163.35 122.78 162.776 122.122 161.936 121.45C161.096 120.75 159.892 119.966 158.324 119.098C156.14 117.866 154.586 116.648 153.662 115.444C152.766 114.24 152.318 112.7 152.318 110.824C152.318 109.256 152.724 107.898 153.536 106.75C154.376 105.602 155.538 104.706 157.022 104.062C158.506 103.418 160.214 103.096 162.146 103.096C163.91 103.096 165.506 103.32 166.934 103.768C168.362 104.188 169.692 104.762 170.924 105.49L168.866 108.766C167.858 108.122 166.794 107.59 165.674 107.17C164.582 106.75 163.294 106.54 161.81 106.54C160.158 106.54 158.828 106.904 157.82 107.632C156.812 108.332 156.308 109.256 156.308 110.404C156.308 111.44 156.658 112.364 157.358 113.176C158.086 113.96 159.416 114.87 161.348 115.906C163.196 116.886 164.61 117.852 165.59 118.804C166.598 119.728 167.284 120.708 167.648 121.744C168.04 122.78 168.236 123.928 168.236 125.188C168.236 126.896 167.788 128.38 166.892 129.64C166.024 130.872 164.806 131.824 163.238 132.496C161.67 133.168 159.85 133.504 157.778 133.504C155.762 133.504 153.942 133.238 152.318 132.706C150.694 132.146 149.266 131.376 148.034 130.396L150.638 127.162C151.59 128.03 152.696 128.73 153.956 129.262C155.244 129.766 156.658 130.018 158.198 130.018C160.018 130.018 161.46 129.626 162.524 128.842C163.616 128.03 164.162 126.938 164.162 125.566ZM181.637 133.504C179.565 133.504 177.773 133.084 176.261 132.244C174.749 131.404 173.573 130.242 172.733 128.758C171.921 127.246 171.515 125.538 171.515 123.634C171.515 121.198 172.005 119 172.985 117.04C173.993 115.08 175.393 113.526 177.185 112.378C178.977 111.23 181.091 110.656 183.527 110.656C185.599 110.656 187.391 111.076 188.903 111.916C190.415 112.756 191.577 113.918 192.389 115.402C193.229 116.886 193.649 118.594 193.649 120.526C193.649 122.934 193.159 125.132 192.179 127.12C191.199 129.08 189.799 130.634 187.979 131.782C186.187 132.93 184.073 133.504 181.637 133.504ZM181.763 130.144C183.443 130.144 184.871 129.738 186.047 128.926C187.251 128.086 188.175 126.966 188.819 125.566C189.463 124.166 189.785 122.598 189.785 120.862C189.785 119.574 189.533 118.426 189.029 117.418C188.525 116.382 187.797 115.556 186.845 114.94C185.893 114.324 184.745 114.016 183.401 114.016C181.749 114.016 180.321 114.436 179.117 115.276C177.913 116.088 176.989 117.194 176.345 118.594C175.701 119.994 175.379 121.562 175.379 123.298C175.379 124.558 175.631 125.706 176.135 126.742C176.639 127.778 177.367 128.604 178.319 129.22C179.271 129.836 180.419 130.144 181.763 130.144ZM204.761 111.958H211.229L210.641 115.234H204.173L200.477 136.024C200.029 138.488 199.189 140.224 197.957 141.232C196.753 142.24 195.283 142.744 193.547 142.744C192.623 142.744 191.783 142.618 191.027 142.366C190.243 142.114 189.557 141.764 188.969 141.316L190.481 138.208C190.873 138.572 191.335 138.866 191.867 139.09C192.399 139.342 192.973 139.468 193.589 139.468C194.345 139.468 195.003 139.202 195.563 138.67C196.123 138.138 196.501 137.284 196.697 136.108L200.393 115.234H197.033L197.621 111.958H200.981L201.611 108.598C202.087 106.022 202.997 104.188 204.341 103.096C205.713 101.976 207.435 101.416 209.507 101.416C210.655 101.416 211.719 101.57 212.699 101.878C213.679 102.158 214.561 102.508 215.345 102.928L213.875 106.12C213.231 105.784 212.559 105.476 211.859 105.196C211.187 104.916 210.389 104.776 209.465 104.776C208.429 104.776 207.547 105.084 206.819 105.7C206.091 106.288 205.615 107.212 205.391 108.472L204.761 111.958ZM211.862 111.958H215.726L217.742 105.07H220.64L219.422 111.958H225.47L224.924 115.234H218.834L217.07 125.44C217.014 125.748 216.972 126.042 216.944 126.322C216.916 126.574 216.902 126.812 216.902 127.036C216.902 128.016 217.196 128.786 217.784 129.346C218.372 129.878 219.142 130.144 220.094 130.144C220.906 130.144 221.592 130.032 222.152 129.808C222.712 129.556 223.216 129.304 223.664 129.052L224.126 132.328C223.594 132.636 222.922 132.902 222.11 133.126C221.326 133.378 220.444 133.504 219.464 133.504C218.428 133.504 217.42 133.294 216.44 132.874C215.488 132.454 214.704 131.796 214.088 130.9C213.472 129.976 213.164 128.786 213.164 127.33C213.164 126.714 213.22 126.028 213.332 125.272L215.054 115.234H211.316L211.862 111.958ZM230.789 133L227.513 111.454L231.167 110.95L233.645 128.8L241.583 112.714H245.573L247.757 128.8L256.577 110.95L259.685 112.546L249.227 133H245.069L242.885 116.956L234.947 133H230.789ZM259.434 124.39C259.434 121.674 260.022 119.294 261.198 117.25C262.402 115.178 264.054 113.568 266.154 112.42C268.254 111.244 270.648 110.656 273.336 110.656C274.988 110.656 276.43 110.824 277.662 111.16C278.922 111.496 279.958 111.832 280.77 112.168L278.124 127.078C278.096 127.218 278.068 127.386 278.04 127.582C278.04 127.75 278.04 127.932 278.04 128.128C278.04 128.912 278.264 129.472 278.712 129.808C279.16 130.116 279.748 130.27 280.476 130.27L279.174 133.21C277.662 133.21 276.5 132.846 275.688 132.118C274.904 131.362 274.512 130.2 274.512 128.632C273.728 129.976 272.734 131.124 271.53 132.076C270.354 133.028 268.968 133.504 267.372 133.504C266 133.504 264.712 133.14 263.508 132.412C262.304 131.656 261.324 130.606 260.568 129.262C259.812 127.89 259.434 126.266 259.434 124.39ZM276.612 114.394C276.08 114.226 275.52 114.1 274.932 114.016C274.372 113.904 273.686 113.848 272.874 113.848C270.942 113.848 269.262 114.282 267.834 115.15C266.406 116.018 265.286 117.222 264.474 118.762C263.69 120.274 263.298 121.996 263.298 123.928C263.298 125.272 263.536 126.406 264.012 127.33C264.516 128.254 265.16 128.954 265.944 129.43C266.728 129.906 267.54 130.144 268.38 130.144C269.528 130.144 270.578 129.752 271.53 128.968C272.482 128.184 273.294 127.092 273.966 125.692C274.666 124.292 275.17 122.696 275.478 120.904L276.612 114.394ZM287.062 117.292C287.09 117.152 287.104 116.998 287.104 116.83C287.132 116.634 287.146 116.438 287.146 116.242C287.146 115.458 286.922 114.912 286.474 114.604C286.026 114.268 285.438 114.1 284.71 114.1L286.012 111.16C287.496 111.16 288.63 111.524 289.414 112.252C290.226 112.952 290.632 114.002 290.632 115.402V116.242C291.444 114.254 292.48 112.826 293.74 111.958C295.028 111.09 296.484 110.656 298.108 110.656C298.752 110.656 299.298 110.712 299.746 110.824C300.222 110.908 300.614 111.02 300.922 111.16L299.242 114.856C298.906 114.716 298.556 114.618 298.192 114.562C297.828 114.506 297.408 114.478 296.932 114.478C295.924 114.478 294.916 114.842 293.908 115.57C292.928 116.27 292.032 117.446 291.22 119.098C290.436 120.75 289.792 123.018 289.288 125.902L288.07 133H284.29L287.062 117.292ZM309.049 133.504C307.201 133.504 305.563 133.112 304.135 132.328C302.735 131.516 301.629 130.368 300.817 128.884C300.033 127.372 299.641 125.594 299.641 123.55C299.641 121.226 300.117 119.084 301.069 117.124C302.049 115.164 303.421 113.596 305.185 112.42C306.977 111.244 309.063 110.656 311.443 110.656C313.067 110.656 314.439 110.964 315.559 111.58C316.707 112.196 317.589 112.994 318.205 113.974C318.821 114.954 319.129 116.004 319.129 117.124C319.129 118.664 318.765 119.938 318.037 120.946C317.309 121.954 316.371 122.738 315.223 123.298C314.075 123.83 312.829 124.208 311.485 124.432C310.169 124.656 308.909 124.768 307.705 124.768C306.949 124.768 306.193 124.74 305.437 124.684C304.709 124.6 304.065 124.516 303.505 124.432C303.729 126.28 304.387 127.694 305.479 128.674C306.571 129.654 307.971 130.144 309.679 130.144C311.079 130.144 312.325 129.962 313.417 129.598C314.509 129.234 315.433 128.87 316.189 128.506L316.525 131.866C315.685 132.258 314.621 132.636 313.333 133C312.045 133.336 310.617 133.504 309.049 133.504ZM311.149 113.848C309.833 113.848 308.643 114.184 307.579 114.856C306.515 115.5 305.633 116.396 304.933 117.544C304.261 118.664 303.813 119.952 303.589 121.408C304.233 121.52 304.877 121.618 305.521 121.702C306.193 121.758 306.921 121.786 307.705 121.786C310.057 121.786 311.919 121.464 313.291 120.82C314.663 120.148 315.349 119.014 315.349 117.418C315.349 116.438 314.957 115.598 314.173 114.898C313.417 114.198 312.409 113.848 311.149 113.848ZM338.087 103.6H355.517L354.929 107.044H341.447L339.893 115.99H351.443L350.855 119.35H339.305L337.499 129.556H350.939L350.351 133H332.921L338.087 103.6ZM368.169 113.974C367.189 113.974 366.125 114.338 364.977 115.066C363.829 115.794 362.765 116.928 361.785 118.468C360.833 119.98 360.147 121.926 359.727 124.306L358.215 133H354.435L358.257 111.16H361.911L360.987 116.2C361.855 114.52 363.017 113.176 364.473 112.168C365.957 111.16 367.511 110.656 369.135 110.656C371.039 110.656 372.565 111.244 373.713 112.42C374.861 113.568 375.435 114.982 375.435 116.662C375.435 117.362 375.351 118.244 375.183 119.308L372.789 133H369.009L371.319 119.938C371.459 119.266 371.543 118.776 371.571 118.468C371.599 118.132 371.613 117.824 371.613 117.544C371.613 116.452 371.291 115.584 370.647 114.94C370.031 114.296 369.205 113.974 368.169 113.974ZM392.397 110.656C394.049 110.656 395.505 110.824 396.765 111.16C398.025 111.496 399.061 111.832 399.873 112.168L396.219 133.252C395.883 135.184 395.365 136.766 394.665 137.998C393.993 139.23 393.195 140.182 392.271 140.854C391.375 141.554 390.423 142.044 389.415 142.324C388.407 142.604 387.413 142.744 386.433 142.744C384.529 142.744 382.905 142.352 381.561 141.568C380.245 140.784 379.167 139.874 378.327 138.838L381.267 136.654C382.639 138.53 384.445 139.468 386.685 139.468C388.085 139.468 389.317 138.95 390.381 137.914C391.445 136.878 392.201 135.114 392.649 132.622L393.363 128.506C392.579 129.766 391.599 130.83 390.423 131.698C389.275 132.566 387.973 133 386.517 133C385.173 133 383.885 132.664 382.653 131.992C381.449 131.32 380.455 130.34 379.671 129.052C378.915 127.764 378.537 126.182 378.537 124.306C378.537 121.59 379.139 119.21 380.343 117.166C381.547 115.122 383.199 113.526 385.299 112.378C387.399 111.23 389.765 110.656 392.397 110.656ZM382.401 123.886C382.401 125.146 382.639 126.21 383.115 127.078C383.619 127.918 384.263 128.562 385.047 129.01C385.831 129.43 386.657 129.64 387.525 129.64C388.589 129.64 389.597 129.262 390.549 128.506C391.501 127.75 392.327 126.686 393.027 125.314C393.755 123.942 394.287 122.332 394.623 120.484L395.715 114.394C395.183 114.226 394.623 114.1 394.035 114.016C393.447 113.904 392.761 113.848 391.977 113.848C390.101 113.848 388.435 114.296 386.979 115.192C385.551 116.06 384.431 117.25 383.619 118.762C382.807 120.274 382.401 121.982 382.401 123.886ZM408.741 107.422C407.957 107.422 407.355 107.198 406.935 106.75C406.543 106.274 406.347 105.728 406.347 105.112C406.347 104.216 406.627 103.502 407.187 102.97C407.747 102.41 408.447 102.13 409.287 102.13C410.071 102.13 410.659 102.368 411.051 102.844C411.471 103.292 411.681 103.824 411.681 104.44C411.681 105.308 411.401 106.022 410.841 106.582C410.281 107.142 409.581 107.422 408.741 107.422ZM405.927 133H402.147L405.969 111.16H409.749L405.927 133ZM425.997 113.974C425.017 113.974 423.953 114.338 422.805 115.066C421.657 115.794 420.593 116.928 419.613 118.468C418.661 119.98 417.975 121.926 417.555 124.306L416.043 133H412.263L416.085 111.16H419.739L418.815 116.2C419.683 114.52 420.845 113.176 422.301 112.168C423.785 111.16 425.339 110.656 426.963 110.656C428.867 110.656 430.393 111.244 431.541 112.42C432.689 113.568 433.263 114.982 433.263 116.662C433.263 117.362 433.179 118.244 433.011 119.308L430.617 133H426.837L429.147 119.938C429.287 119.266 429.371 118.776 429.399 118.468C429.427 118.132 429.441 117.824 429.441 117.544C429.441 116.452 429.119 115.584 428.475 114.94C427.859 114.296 427.033 113.974 425.997 113.974ZM445.774 133.504C443.926 133.504 442.288 133.112 440.86 132.328C439.46 131.516 438.354 130.368 437.542 128.884C436.758 127.372 436.366 125.594 436.366 123.55C436.366 121.226 436.842 119.084 437.794 117.124C438.774 115.164 440.146 113.596 441.91 112.42C443.702 111.244 445.788 110.656 448.168 110.656C449.792 110.656 451.164 110.964 452.284 111.58C453.432 112.196 454.314 112.994 454.93 113.974C455.546 114.954 455.854 116.004 455.854 117.124C455.854 118.664 455.49 119.938 454.762 120.946C454.034 121.954 453.096 122.738 451.948 123.298C450.8 123.83 449.554 124.208 448.21 124.432C446.894 124.656 445.634 124.768 444.43 124.768C443.674 124.768 442.918 124.74 442.162 124.684C441.434 124.6 440.79 124.516 440.23 124.432C440.454 126.28 441.112 127.694 442.204 128.674C443.296 129.654 444.696 130.144 446.404 130.144C447.804 130.144 449.05 129.962 450.142 129.598C451.234 129.234 452.158 128.87 452.914 128.506L453.25 131.866C452.41 132.258 451.346 132.636 450.058 133C448.77 133.336 447.342 133.504 445.774 133.504ZM447.874 113.848C446.558 113.848 445.368 114.184 444.304 114.856C443.24 115.5 442.358 116.396 441.658 117.544C440.986 118.664 440.538 119.952 440.314 121.408C440.958 121.52 441.602 121.618 442.246 121.702C442.918 121.758 443.646 121.786 444.43 121.786C446.782 121.786 448.644 121.464 450.016 120.82C451.388 120.148 452.074 119.014 452.074 117.418C452.074 116.438 451.682 115.598 450.898 114.898C450.142 114.198 449.134 113.848 447.874 113.848ZM466.882 133.504C465.034 133.504 463.396 133.112 461.968 132.328C460.568 131.516 459.462 130.368 458.65 128.884C457.866 127.372 457.474 125.594 457.474 123.55C457.474 121.226 457.95 119.084 458.902 117.124C459.882 115.164 461.254 113.596 463.018 112.42C464.81 111.244 466.896 110.656 469.276 110.656C470.9 110.656 472.272 110.964 473.392 111.58C474.54 112.196 475.422 112.994 476.038 113.974C476.654 114.954 476.962 116.004 476.962 117.124C476.962 118.664 476.598 119.938 475.87 120.946C475.142 121.954 474.204 122.738 473.056 123.298C471.908 123.83 470.662 124.208 469.318 124.432C468.002 124.656 466.742 124.768 465.538 124.768C464.782 124.768 464.026 124.74 463.27 124.684C462.542 124.6 461.898 124.516 461.338 124.432C461.562 126.28 462.22 127.694 463.312 128.674C464.404 129.654 465.804 130.144 467.512 130.144C468.912 130.144 470.158 129.962 471.25 129.598C472.342 129.234 473.266 128.87 474.022 128.506L474.358 131.866C473.518 132.258 472.454 132.636 471.166 133C469.878 133.336 468.45 133.504 466.882 133.504ZM468.982 113.848C467.666 113.848 466.476 114.184 465.412 114.856C464.348 115.5 463.466 116.396 462.766 117.544C462.094 118.664 461.646 119.952 461.422 121.408C462.066 121.52 462.71 121.618 463.354 121.702C464.026 121.758 464.754 121.786 465.538 121.786C467.89 121.786 469.752 121.464 471.124 120.82C472.496 120.148 473.182 119.014 473.182 117.418C473.182 116.438 472.79 115.598 472.006 114.898C471.25 114.198 470.242 113.848 468.982 113.848ZM481.984 117.292C482.012 117.152 482.026 116.998 482.026 116.83C482.054 116.634 482.068 116.438 482.068 116.242C482.068 115.458 481.844 114.912 481.396 114.604C480.948 114.268 480.36 114.1 479.632 114.1L480.934 111.16C482.418 111.16 483.552 111.524 484.336 112.252C485.148 112.952 485.554 114.002 485.554 115.402V116.242C486.366 114.254 487.402 112.826 488.662 111.958C489.95 111.09 491.406 110.656 493.03 110.656C493.674 110.656 494.22 110.712 494.668 110.824C495.144 110.908 495.536 111.02 495.844 111.16L494.164 114.856C493.828 114.716 493.478 114.618 493.114 114.562C492.75 114.506 492.33 114.478 491.854 114.478C490.846 114.478 489.838 114.842 488.83 115.57C487.85 116.27 486.954 117.446 486.142 119.098C485.358 120.75 484.714 123.018 484.21 125.902L482.992 133H479.212L481.984 117.292Z" fill="#2F80ED"/>
<path d="M207.908 167.28C207.908 166.668 207.824 166.218 207.656 165.93C207.488 165.63 207.152 165.48 206.648 165.48H206.288V165.12H213.47C214.49 165.12 215 165.6 215 166.56V167.91H214.64C214.64 166.53 213.89 165.84 212.39 165.84H209.528V170.61H213.596V171.33H209.528V177H207.908V167.28ZM217.292 170.7C217.292 170.088 217.208 169.638 217.04 169.35C216.872 169.05 216.536 168.9 216.032 168.9H215.852V168.54H217.292C217.748 168.54 218.09 168.606 218.318 168.738C218.558 168.858 218.726 169.062 218.822 169.35H218.912C219.128 169.074 219.416 168.84 219.776 168.648C220.148 168.456 220.58 168.36 221.072 168.36C221.552 168.36 221.912 168.45 222.152 168.63C222.356 168.786 222.566 169.056 222.782 169.44L222.062 169.98C221.93 169.8 221.738 169.668 221.486 169.584C221.234 169.488 220.946 169.44 220.622 169.44C220.262 169.44 219.932 169.524 219.632 169.692C219.332 169.848 219.092 170.064 218.912 170.34V177H217.292V170.7ZM227.978 177.18C227.162 177.18 226.454 176.988 225.854 176.604C225.254 176.208 224.798 175.674 224.486 175.002C224.174 174.33 224.018 173.586 224.018 172.77C224.018 171.954 224.174 171.21 224.486 170.538C224.798 169.866 225.254 169.338 225.854 168.954C226.454 168.558 227.162 168.36 227.978 168.36C228.794 168.36 229.502 168.558 230.102 168.954C230.702 169.338 231.158 169.866 231.47 170.538C231.782 171.21 231.938 171.954 231.938 172.77C231.938 173.586 231.782 174.33 231.47 175.002C231.158 175.674 230.702 176.208 230.102 176.604C229.502 176.988 228.794 177.18 227.978 177.18ZM227.978 176.46C228.422 176.46 228.812 176.298 229.148 175.974C229.496 175.65 229.76 175.206 229.94 174.642C230.132 174.078 230.228 173.454 230.228 172.77C230.228 172.086 230.132 171.462 229.94 170.898C229.76 170.334 229.496 169.89 229.148 169.566C228.812 169.242 228.422 169.08 227.978 169.08C227.534 169.08 227.138 169.242 226.79 169.566C226.454 169.89 226.19 170.334 225.998 170.898C225.818 171.462 225.728 172.086 225.728 172.77C225.728 173.454 225.818 174.078 225.998 174.642C226.19 175.206 226.454 175.65 226.79 175.974C227.138 176.298 227.534 176.46 227.978 176.46ZM234.679 170.7C234.679 170.088 234.595 169.638 234.427 169.35C234.259 169.05 233.923 168.9 233.419 168.9H233.059V168.54H234.679C235.123 168.54 235.459 168.6 235.687 168.72C235.927 168.84 236.101 169.02 236.209 169.26H236.299C236.551 169.008 236.875 168.798 237.271 168.63C237.679 168.45 238.135 168.36 238.639 168.36C239.143 168.36 239.575 168.456 239.935 168.648C240.295 168.828 240.583 169.152 240.799 169.62C241.111 169.224 241.507 168.918 241.987 168.702C242.479 168.474 242.983 168.36 243.499 168.36C244.267 168.36 244.879 168.6 245.335 169.08C245.791 169.56 246.019 170.4 246.019 171.6V177H244.399V171.6C244.399 170.736 244.279 170.118 244.039 169.746C243.799 169.362 243.439 169.17 242.959 169.17C242.623 169.17 242.269 169.296 241.897 169.548C241.525 169.788 241.249 170.052 241.069 170.34C241.129 170.52 241.159 170.94 241.159 171.6V177H239.539V171.6C239.539 170.736 239.419 170.118 239.179 169.746C238.939 169.362 238.579 169.17 238.099 169.17C237.463 169.17 236.863 169.488 236.299 170.124V177H234.679V170.7ZM263.662 177.09C263.086 177.09 262.516 176.934 261.952 176.622C261.388 176.298 260.938 175.674 260.602 174.75L260.152 173.58H255.112L253.672 177H252.862L257.902 165.12H258.442L262.402 174.75C262.702 175.446 262.984 175.926 263.248 176.19C263.512 176.442 263.89 176.592 264.382 176.64V177C264.166 177.06 263.926 177.09 263.662 177.09ZM259.792 172.86L257.632 167.64L255.382 172.86H259.792ZM269.022 177.18C268.158 177.18 267.426 176.988 266.826 176.604C266.238 176.208 265.794 175.68 265.494 175.02C265.206 174.348 265.062 173.598 265.062 172.77C265.062 171.942 265.206 171.198 265.494 170.538C265.794 169.866 266.238 169.338 266.826 168.954C267.426 168.558 268.158 168.36 269.022 168.36C270.342 168.36 271.212 168.57 271.632 168.99C271.836 169.194 271.962 169.446 272.01 169.746C272.058 170.034 272.082 170.562 272.082 171.33H271.722C271.674 170.586 271.44 170.028 271.02 169.656C270.6 169.272 270.054 169.08 269.382 169.08C268.518 169.08 267.864 169.422 267.42 170.106C266.988 170.79 266.772 171.678 266.772 172.77C266.772 173.862 266.988 174.75 267.42 175.434C267.864 176.118 268.518 176.46 269.382 176.46C269.994 176.46 270.498 176.346 270.894 176.118C271.29 175.878 271.656 175.512 271.992 175.02L272.352 175.29C271.956 175.962 271.488 176.448 270.948 176.748C270.408 177.036 269.766 177.18 269.022 177.18ZM278.083 177.18C277.219 177.18 276.487 176.988 275.887 176.604C275.299 176.208 274.855 175.68 274.555 175.02C274.267 174.348 274.123 173.598 274.123 172.77C274.123 171.942 274.267 171.198 274.555 170.538C274.855 169.866 275.299 169.338 275.887 168.954C276.487 168.558 277.219 168.36 278.083 168.36C279.403 168.36 280.273 168.57 280.693 168.99C280.897 169.194 281.023 169.446 281.071 169.746C281.119 170.034 281.143 170.562 281.143 171.33H280.783C280.735 170.586 280.501 170.028 280.081 169.656C279.661 169.272 279.115 169.08 278.443 169.08C277.579 169.08 276.925 169.422 276.481 170.106C276.049 170.79 275.833 171.678 275.833 172.77C275.833 173.862 276.049 174.75 276.481 175.434C276.925 176.118 277.579 176.46 278.443 176.46C279.055 176.46 279.559 176.346 279.955 176.118C280.351 175.878 280.717 175.512 281.053 175.02L281.413 175.29C281.017 175.962 280.549 176.448 280.009 176.748C279.469 177.036 278.827 177.18 278.083 177.18ZM284.624 167.46C284.348 167.46 284.108 167.346 283.904 167.118C283.712 166.89 283.616 166.62 283.616 166.308C283.616 166.056 283.688 165.858 283.832 165.714C283.988 165.57 284.192 165.498 284.444 165.498C284.72 165.498 284.954 165.612 285.146 165.84C285.35 166.068 285.452 166.338 285.452 166.65C285.452 166.902 285.374 167.1 285.218 167.244C285.074 167.388 284.876 167.46 284.624 167.46ZM283.94 170.7C283.94 170.088 283.856 169.638 283.688 169.35C283.52 169.05 283.184 168.9 282.68 168.9H282.32V168.54H283.94C284.384 168.54 284.714 168.6 284.93 168.72C285.158 168.828 285.32 169.032 285.416 169.332C285.512 169.632 285.56 170.088 285.56 170.7V177H283.94V170.7ZM291.934 177.18C291.118 177.18 290.41 176.988 289.81 176.604C289.21 176.208 288.754 175.674 288.442 175.002C288.13 174.33 287.974 173.586 287.974 172.77C287.974 171.954 288.13 171.21 288.442 170.538C288.754 169.866 289.21 169.338 289.81 168.954C290.41 168.558 291.118 168.36 291.934 168.36C292.75 168.36 293.458 168.558 294.058 168.954C294.658 169.338 295.114 169.866 295.426 170.538C295.738 171.21 295.894 171.954 295.894 172.77C295.894 173.586 295.738 174.33 295.426 175.002C295.114 175.674 294.658 176.208 294.058 176.604C293.458 176.988 292.75 177.18 291.934 177.18ZM291.934 176.46C292.378 176.46 292.768 176.298 293.104 175.974C293.452 175.65 293.716 175.206 293.896 174.642C294.088 174.078 294.184 173.454 294.184 172.77C294.184 172.086 294.088 171.462 293.896 170.898C293.716 170.334 293.452 169.89 293.104 169.566C292.768 169.242 292.378 169.08 291.934 169.08C291.49 169.08 291.094 169.242 290.746 169.566C290.41 169.89 290.146 170.334 289.954 170.898C289.774 171.462 289.684 172.086 289.684 172.77C289.684 173.454 289.774 174.078 289.954 174.642C290.146 175.206 290.41 175.65 290.746 175.974C291.094 176.298 291.49 176.46 291.934 176.46ZM296.801 179.106C297.377 179.106 297.803 178.8 298.079 178.188C298.367 177.576 298.511 176.712 298.511 175.596V165.12H300.131V175.596C300.131 176.532 300.029 177.276 299.825 177.828C299.633 178.392 299.297 178.806 298.817 179.07C298.337 179.334 297.665 179.466 296.801 179.466V179.106ZM306.664 177.18C305.848 177.18 305.14 176.988 304.54 176.604C303.94 176.208 303.484 175.674 303.172 175.002C302.86 174.33 302.704 173.586 302.704 172.77C302.704 171.954 302.86 171.21 303.172 170.538C303.484 169.866 303.94 169.338 304.54 168.954C305.14 168.558 305.848 168.36 306.664 168.36C307.48 168.36 308.188 168.558 308.788 168.954C309.388 169.338 309.844 169.866 310.156 170.538C310.468 171.21 310.624 171.954 310.624 172.77C310.624 173.586 310.468 174.33 310.156 175.002C309.844 175.674 309.388 176.208 308.788 176.604C308.188 176.988 307.48 177.18 306.664 177.18ZM306.664 176.46C307.108 176.46 307.498 176.298 307.834 175.974C308.182 175.65 308.446 175.206 308.626 174.642C308.818 174.078 308.914 173.454 308.914 172.77C308.914 172.086 308.818 171.462 308.626 170.898C308.446 170.334 308.182 169.89 307.834 169.566C307.498 169.242 307.108 169.08 306.664 169.08C306.22 169.08 305.824 169.242 305.476 169.566C305.14 169.89 304.876 170.334 304.684 170.898C304.504 171.462 304.414 172.086 304.414 172.77C304.414 173.454 304.504 174.078 304.684 174.642C304.876 175.206 305.14 175.65 305.476 175.974C305.824 176.298 306.22 176.46 306.664 176.46ZM317.145 177.18C316.533 177.18 316.029 177.084 315.633 176.892C315.237 176.7 314.931 176.466 314.715 176.19H314.625L313.995 177H313.095V167.28C313.095 166.668 313.011 166.218 312.843 165.93C312.675 165.63 312.339 165.48 311.835 165.48H311.475V165.12H313.095C313.539 165.12 313.869 165.18 314.085 165.3C314.313 165.408 314.475 165.612 314.571 165.912C314.667 166.212 314.715 166.668 314.715 167.28V168.9C315.063 168.732 315.411 168.6 315.759 168.504C316.107 168.408 316.509 168.36 316.965 168.36C318.081 168.36 318.927 168.774 319.503 169.602C320.091 170.43 320.385 171.486 320.385 172.77C320.385 174.042 320.103 175.098 319.539 175.938C318.975 176.766 318.177 177.18 317.145 177.18ZM316.605 176.46C317.289 176.46 317.805 176.124 318.153 175.452C318.501 174.768 318.675 173.874 318.675 172.77C318.675 171.654 318.489 170.76 318.117 170.088C317.757 169.416 317.193 169.08 316.425 169.08C316.173 169.08 315.915 169.128 315.651 169.224C315.387 169.32 315.075 169.452 314.715 169.62V175.38C314.931 175.704 315.183 175.968 315.471 176.172C315.771 176.364 316.149 176.46 316.605 176.46ZM330.814 177.18C329.914 177.18 329.176 176.94 328.6 176.46C328.036 175.98 327.754 175.14 327.754 173.94V170.7C327.754 170.088 327.67 169.638 327.502 169.35C327.334 169.05 326.998 168.9 326.494 168.9H326.314V168.54H327.754C328.198 168.54 328.528 168.6 328.744 168.72C328.972 168.828 329.134 169.032 329.23 169.332C329.326 169.632 329.374 170.088 329.374 170.7V173.94C329.374 174.78 329.56 175.398 329.932 175.794C330.316 176.178 330.79 176.37 331.354 176.37C331.99 176.37 332.59 176.052 333.154 175.416V168.54H334.774V177H333.874L333.244 176.28H333.154C332.902 176.532 332.572 176.748 332.164 176.928C331.768 177.096 331.318 177.18 330.814 177.18ZM337.999 170.7C337.999 170.088 337.915 169.638 337.747 169.35C337.579 169.05 337.243 168.9 336.739 168.9H336.379V168.54H337.999C338.455 168.54 338.797 168.606 339.025 168.738C339.265 168.858 339.433 169.062 339.529 169.35H339.619C339.835 169.074 340.141 168.84 340.537 168.648C340.933 168.456 341.437 168.36 342.049 168.36C343.081 168.36 343.879 168.78 344.443 169.62C345.007 170.448 345.289 171.498 345.289 172.77C345.289 174.054 344.995 175.11 344.407 175.938C343.831 176.766 342.985 177.18 341.869 177.18C341.413 177.18 341.011 177.132 340.663 177.036C340.315 176.94 339.967 176.808 339.619 176.64V180.42H337.999V170.7ZM341.329 176.46C342.097 176.46 342.661 176.124 343.021 175.452C343.393 174.78 343.579 173.886 343.579 172.77C343.579 171.666 343.405 170.778 343.057 170.106C342.709 169.422 342.193 169.08 341.509 169.08C340.705 169.08 340.075 169.44 339.619 170.16V175.92C339.979 176.088 340.291 176.22 340.555 176.316C340.819 176.412 341.077 176.46 341.329 176.46ZM350.277 177.18C349.605 177.18 349.077 176.988 348.693 176.604C348.309 176.22 348.117 175.632 348.117 174.84V169.26H346.857V168.54H348.117V166.92L349.017 165.84H349.737V168.54H351.897V169.26H349.737V174.84C349.737 175.92 350.157 176.46 350.997 176.46C351.285 176.46 351.525 176.43 351.717 176.37C351.921 176.31 352.131 176.22 352.347 176.1L352.527 176.46C352.251 176.664 351.945 176.838 351.609 176.982C351.273 177.114 350.829 177.18 350.277 177.18ZM357.691 177.18C356.875 177.18 356.167 176.988 355.567 176.604C354.967 176.208 354.511 175.674 354.199 175.002C353.887 174.33 353.731 173.586 353.731 172.77C353.731 171.954 353.887 171.21 354.199 170.538C354.511 169.866 354.967 169.338 355.567 168.954C356.167 168.558 356.875 168.36 357.691 168.36C358.507 168.36 359.215 168.558 359.815 168.954C360.415 169.338 360.871 169.866 361.183 170.538C361.495 171.21 361.651 171.954 361.651 172.77C361.651 173.586 361.495 174.33 361.183 175.002C360.871 175.674 360.415 176.208 359.815 176.604C359.215 176.988 358.507 177.18 357.691 177.18ZM357.691 176.46C358.135 176.46 358.525 176.298 358.861 175.974C359.209 175.65 359.473 175.206 359.653 174.642C359.845 174.078 359.941 173.454 359.941 172.77C359.941 172.086 359.845 171.462 359.653 170.898C359.473 170.334 359.209 169.89 358.861 169.566C358.525 169.242 358.135 169.08 357.691 169.08C357.247 169.08 356.851 169.242 356.503 169.566C356.167 169.89 355.903 170.334 355.711 170.898C355.531 171.462 355.441 172.086 355.441 172.77C355.441 173.454 355.531 174.078 355.711 174.642C355.903 175.206 356.167 175.65 356.503 175.974C356.851 176.298 357.247 176.46 357.691 176.46ZM373.77 173.94H368.01V173.22L373.95 165.12H375.39V173.22H377.01V173.94H375.39V177H373.77V173.94ZM373.77 173.22V166.848L369.09 173.22H373.77ZM380.194 166.92L378.448 168.054L378.124 167.64L380.914 165.12H381.814V177H380.194V166.92ZM390.484 167.28C390.484 166.668 390.4 166.218 390.232 165.93C390.064 165.63 389.728 165.48 389.224 165.48H388.864V165.12H390.484C390.928 165.12 391.258 165.18 391.474 165.3C391.702 165.408 391.864 165.612 391.96 165.912C392.056 166.212 392.104 166.668 392.104 167.28V176.28H398.494V177H390.484V167.28ZM402.285 177.18C401.901 177.18 401.511 177.102 401.115 176.946C400.719 176.778 400.377 176.508 400.089 176.136C399.813 175.764 399.675 175.272 399.675 174.66C399.675 173.748 400.095 173.1 400.935 172.716C401.787 172.332 402.897 172.14 404.265 172.14H404.805C404.805 170.964 404.643 170.16 404.319 169.728C403.995 169.296 403.527 169.08 402.915 169.08C402.375 169.08 401.943 169.194 401.619 169.422C401.295 169.65 401.067 170.046 400.935 170.61H400.125C400.125 170.202 400.149 169.884 400.197 169.656C400.245 169.416 400.371 169.194 400.575 168.99C400.791 168.774 401.145 168.618 401.637 168.522C402.141 168.414 402.687 168.36 403.275 168.36C404.247 168.36 405.015 168.624 405.579 169.152C406.143 169.668 406.425 170.664 406.425 172.14V177H405.525L404.895 176.19H404.805C404.589 176.466 404.271 176.7 403.851 176.892C403.431 177.084 402.909 177.18 402.285 177.18ZM403.095 176.37C403.491 176.37 403.821 176.274 404.085 176.082C404.349 175.89 404.589 175.626 404.805 175.29V172.86H404.265C403.377 172.86 402.675 173.028 402.159 173.364C401.643 173.688 401.385 174.12 401.385 174.66C401.385 175.212 401.547 175.638 401.871 175.938C402.207 176.226 402.615 176.37 403.095 176.37ZM415.685 177.18C414.665 177.18 413.795 176.7 413.075 175.74L410.915 172.86V177H409.295V167.28C409.295 166.668 409.211 166.218 409.043 165.93C408.875 165.63 408.539 165.48 408.035 165.48H407.675V165.12H409.295C409.739 165.12 410.069 165.18 410.285 165.3C410.513 165.408 410.675 165.612 410.771 165.912C410.867 166.212 410.915 166.668 410.915 167.28V172.59L413.165 169.71C413.477 169.326 413.807 169.038 414.155 168.846C414.503 168.642 414.953 168.54 415.505 168.54H416.045V168.99C415.721 168.99 415.409 169.056 415.109 169.188C414.809 169.32 414.551 169.524 414.335 169.8L412.355 172.32L414.605 175.2C414.953 175.656 415.277 175.998 415.577 176.226C415.889 176.454 416.225 176.598 416.585 176.658V177C416.321 177.12 416.021 177.18 415.685 177.18ZM418.392 167.28C418.392 166.668 418.308 166.218 418.14 165.93C417.972 165.63 417.636 165.48 417.132 165.48H416.772V165.12H418.392C418.836 165.12 419.166 165.18 419.382 165.3C419.61 165.408 419.772 165.612 419.868 165.912C419.964 166.212 420.012 166.668 420.012 167.28V169.26C420.264 169.008 420.588 168.798 420.984 168.63C421.392 168.45 421.848 168.36 422.352 168.36C423.252 168.36 423.984 168.6 424.548 169.08C425.124 169.56 425.412 170.4 425.412 171.6V177H423.792V171.6C423.792 170.76 423.6 170.148 423.216 169.764C422.844 169.368 422.376 169.17 421.812 169.17C421.176 169.17 420.576 169.488 420.012 170.124V177H418.392V167.28ZM431.105 177.18C429.725 177.18 428.795 176.94 428.315 176.46C428.111 176.256 427.985 176.028 427.937 175.776C427.889 175.512 427.865 175.11 427.865 174.57H428.225C428.333 175.17 428.591 175.638 428.999 175.974C429.419 176.298 430.001 176.46 430.745 176.46C431.405 176.46 431.897 176.346 432.221 176.118C432.557 175.89 432.725 175.584 432.725 175.2C432.725 174.852 432.593 174.552 432.329 174.3C432.077 174.048 431.669 173.808 431.105 173.58L430.025 173.13C429.305 172.842 428.765 172.506 428.405 172.122C428.045 171.738 427.865 171.264 427.865 170.7C427.865 169.968 428.141 169.398 428.693 168.99C429.245 168.57 429.959 168.36 430.835 168.36C432.155 168.36 433.055 168.6 433.535 169.08C433.739 169.284 433.865 169.512 433.913 169.764C433.961 170.016 433.985 170.418 433.985 170.97H433.625C433.529 170.37 433.277 169.908 432.869 169.584C432.461 169.248 431.903 169.08 431.195 169.08C430.631 169.08 430.187 169.2 429.863 169.44C429.551 169.668 429.395 169.968 429.395 170.34C429.395 170.964 429.875 171.474 430.835 171.87L431.915 172.32C432.731 172.656 433.325 173.016 433.697 173.4C434.069 173.772 434.255 174.252 434.255 174.84C434.255 175.572 433.961 176.148 433.373 176.568C432.785 176.976 432.029 177.18 431.105 177.18Z" fill="#595959"/>
<defs>
<linearGradient id="paint0_linear_0_1328" x1="446.5" y1="19" x2="368.417" y2="-107.085" gradientUnits="userSpaceOnUse">
<stop stop-color="#992FED"/>
<stop offset="1" stop-color="#2F80ED"/>
</linearGradient>
</defs>
</svg>
