<svg width="421" height="94" viewBox="0 0 421 94" fill="none" xmlns="http://www.w3.org/2000/svg">
<path d="M0.320292 43.446L16.4483 15.6H20.9423L27.3683 44.538L23.5463 45.42L21.7823 37.02H8.17429L3.51229 45.336L0.320292 43.446ZM10.0643 33.66H21.0683L18.0863 19.506L10.0643 33.66ZM46.8179 27.57C46.1179 27.122 45.3619 26.758 44.5499 26.478C43.7379 26.17 42.8419 26.016 41.8619 26.016C40.3219 26.016 38.9639 26.422 37.7879 27.234C36.6399 28.046 35.7439 29.152 35.0999 30.552C34.4559 31.924 34.1339 33.478 34.1339 35.214C34.1339 37.342 34.6659 39.036 35.7299 40.296C36.8219 41.528 38.2779 42.144 40.0979 42.144C41.1619 42.144 42.0999 42.018 42.9119 41.766C43.7239 41.514 44.4659 41.22 45.1379 40.884L45.5999 44.202C44.8999 44.51 44.0459 44.804 43.0379 45.084C42.0579 45.364 40.8679 45.504 39.4679 45.504C37.6479 45.504 36.0379 45.098 34.6379 44.286C33.2659 43.474 32.1879 42.34 31.4039 40.884C30.6479 39.4 30.2699 37.678 30.2699 35.718C30.2699 33.366 30.7459 31.21 31.6979 29.25C32.6779 27.262 34.0499 25.666 35.8139 24.462C37.6059 23.258 39.7199 22.656 42.1559 22.656C43.4719 22.656 44.6339 22.824 45.6419 23.16C46.6779 23.468 47.5879 23.86 48.3719 24.336L46.8179 27.57ZM64.891 27.57C64.191 27.122 63.435 26.758 62.623 26.478C61.811 26.17 60.915 26.016 59.935 26.016C58.395 26.016 57.037 26.422 55.861 27.234C54.713 28.046 53.817 29.152 53.173 30.552C52.529 31.924 52.207 33.478 52.207 35.214C52.207 37.342 52.739 39.036 53.803 40.296C54.895 41.528 56.351 42.144 58.171 42.144C59.235 42.144 60.173 42.018 60.985 41.766C61.797 41.514 62.539 41.22 63.211 40.884L63.673 44.202C62.973 44.51 62.119 44.804 61.111 45.084C60.131 45.364 58.941 45.504 57.541 45.504C55.721 45.504 54.111 45.098 52.711 44.286C51.339 43.474 50.261 42.34 49.477 40.884C48.721 39.4 48.343 37.678 48.343 35.718C48.343 33.366 48.819 31.21 49.771 29.25C50.751 27.262 52.123 25.666 53.887 24.462C55.679 23.258 57.793 22.656 60.229 22.656C61.545 22.656 62.707 22.824 63.715 23.16C64.751 23.468 65.661 23.86 66.445 24.336L64.891 27.57ZM73.6254 19.422C72.8414 19.422 72.2394 19.198 71.8194 18.75C71.4274 18.274 71.2314 17.728 71.2314 17.112C71.2314 16.216 71.5114 15.502 72.0714 14.97C72.6314 14.41 73.3314 14.13 74.1714 14.13C74.9554 14.13 75.5434 14.368 75.9354 14.844C76.3554 15.292 76.5654 15.824 76.5654 16.44C76.5654 17.308 76.2854 18.022 75.7254 18.582C75.1654 19.142 74.4654 19.422 73.6254 19.422ZM70.8114 45H67.0314L70.8534 23.16H74.6334L70.8114 45ZM87.2695 45.504C85.1975 45.504 83.4055 45.084 81.8935 44.244C80.3815 43.404 79.2055 42.242 78.3655 40.758C77.5535 39.246 77.1475 37.538 77.1475 35.634C77.1475 33.198 77.6375 31 78.6175 29.04C79.6255 27.08 81.0255 25.526 82.8175 24.378C84.6095 23.23 86.7235 22.656 89.1595 22.656C91.2315 22.656 93.0235 23.076 94.5355 23.916C96.0475 24.756 97.2095 25.918 98.0215 27.402C98.8615 28.886 99.2815 30.594 99.2815 32.526C99.2815 34.934 98.7915 37.132 97.8115 39.12C96.8315 41.08 95.4315 42.634 93.6115 43.782C91.8195 44.93 89.7055 45.504 87.2695 45.504ZM87.3955 42.144C89.0755 42.144 90.5035 41.738 91.6795 40.926C92.8835 40.086 93.8075 38.966 94.4515 37.566C95.0955 36.166 95.4175 34.598 95.4175 32.862C95.4175 31.574 95.1655 30.426 94.6615 29.418C94.1575 28.382 93.4295 27.556 92.4775 26.94C91.5255 26.324 90.3775 26.016 89.0335 26.016C87.3815 26.016 85.9535 26.436 84.7495 27.276C83.5455 28.088 82.6215 29.194 81.9775 30.594C81.3335 31.994 81.0115 33.562 81.0115 35.298C81.0115 36.558 81.2635 37.706 81.7675 38.742C82.2715 39.778 82.9995 40.604 83.9515 41.22C84.9035 41.836 86.0515 42.144 87.3955 42.144ZM104.85 45.504C103.45 45.504 102.19 45.224 101.07 44.664C99.9501 44.104 98.9841 43.39 98.1721 42.522L100.608 39.582C101.168 40.282 101.798 40.87 102.498 41.346C103.226 41.822 104.066 42.06 105.018 42.06C106.026 42.06 106.936 41.682 107.748 40.926C108.588 40.142 109.19 38.784 109.554 36.852L113.376 15.6H117.366L113.544 37.02C113.208 38.868 112.704 40.366 112.032 41.514C111.36 42.634 110.604 43.488 109.764 44.076C108.924 44.636 108.07 45.014 107.202 45.21C106.362 45.406 105.578 45.504 104.85 45.504ZM128.502 45.504C126.43 45.504 124.638 45.084 123.126 44.244C121.614 43.404 120.438 42.242 119.598 40.758C118.786 39.246 118.38 37.538 118.38 35.634C118.38 33.198 118.87 31 119.85 29.04C120.858 27.08 122.258 25.526 124.05 24.378C125.842 23.23 127.956 22.656 130.392 22.656C132.464 22.656 134.256 23.076 135.768 23.916C137.28 24.756 138.442 25.918 139.254 27.402C140.094 28.886 140.514 30.594 140.514 32.526C140.514 34.934 140.024 37.132 139.044 39.12C138.064 41.08 136.664 42.634 134.844 43.782C133.052 44.93 130.938 45.504 128.502 45.504ZM128.628 42.144C130.308 42.144 131.736 41.738 132.912 40.926C134.116 40.086 135.04 38.966 135.684 37.566C136.328 36.166 136.65 34.598 136.65 32.862C136.65 31.574 136.398 30.426 135.894 29.418C135.39 28.382 134.662 27.556 133.71 26.94C132.758 26.324 131.61 26.016 130.266 26.016C128.614 26.016 127.186 26.436 125.982 27.276C124.778 28.088 123.854 29.194 123.21 30.594C122.566 31.994 122.244 33.562 122.244 35.298C122.244 36.558 122.496 37.706 123 38.742C123.504 39.778 124.232 40.604 125.184 41.22C126.136 41.836 127.284 42.144 128.628 42.144ZM164.142 30.72C164.142 32.82 163.778 34.766 163.05 36.558C162.322 38.35 161.286 39.918 159.942 41.262C158.626 42.606 157.058 43.656 155.238 44.412C153.418 45.14 151.43 45.504 149.274 45.504C147.986 45.504 146.796 45.378 145.704 45.126C144.612 44.902 143.702 44.608 142.974 44.244L148.308 13.92H152.088L149.694 27.57C150.506 26.086 151.542 24.896 152.802 24C154.09 23.104 155.532 22.656 157.128 22.656C158.472 22.656 159.662 22.992 160.698 23.664C161.762 24.336 162.602 25.288 163.218 26.52C163.834 27.724 164.142 29.124 164.142 30.72ZM156.162 25.932C155.154 25.932 154.118 26.282 153.054 26.982C151.99 27.682 151.01 28.858 150.114 30.51C149.218 32.134 148.518 34.346 148.014 37.146L147.174 41.808C147.622 41.92 148.084 42.004 148.56 42.06C149.064 42.116 149.596 42.144 150.156 42.144C152.088 42.144 153.81 41.668 155.322 40.716C156.862 39.736 158.066 38.42 158.934 36.768C159.83 35.116 160.278 33.268 160.278 31.224C160.278 29.6 159.9 28.312 159.144 27.36C158.388 26.408 157.394 25.932 156.162 25.932ZM180.272 15.726L184.388 15.306L186.656 40.758L196.904 18.666H201.902L204.254 40.758L215.468 15.432L218.996 17.07L206.06 45H201.104L198.71 22.908L188.42 45H183.464L180.272 15.726ZM216.225 36.39C216.225 33.674 216.813 31.294 217.989 29.25C219.193 27.178 220.845 25.568 222.945 24.42C225.045 23.244 227.439 22.656 230.127 22.656C231.779 22.656 233.221 22.824 234.453 23.16C235.713 23.496 236.749 23.832 237.561 24.168L234.915 39.078C234.887 39.218 234.859 39.386 234.831 39.582C234.831 39.75 234.831 39.932 234.831 40.128C234.831 40.912 235.055 41.472 235.503 41.808C235.951 42.116 236.539 42.27 237.267 42.27L235.965 45.21C234.453 45.21 233.291 44.846 232.479 44.118C231.695 43.362 231.303 42.2 231.303 40.632C230.519 41.976 229.525 43.124 228.321 44.076C227.145 45.028 225.759 45.504 224.163 45.504C222.791 45.504 221.503 45.14 220.299 44.412C219.095 43.656 218.115 42.606 217.359 41.262C216.603 39.89 216.225 38.266 216.225 36.39ZM233.403 26.394C232.871 26.226 232.311 26.1 231.723 26.016C231.163 25.904 230.477 25.848 229.665 25.848C227.733 25.848 226.053 26.282 224.625 27.15C223.197 28.018 222.077 29.222 221.265 30.762C220.481 32.274 220.089 33.996 220.089 35.928C220.089 37.272 220.327 38.406 220.803 39.33C221.307 40.254 221.951 40.954 222.735 41.43C223.519 41.906 224.331 42.144 225.171 42.144C226.319 42.144 227.369 41.752 228.321 40.968C229.273 40.184 230.085 39.092 230.757 37.692C231.457 36.292 231.961 34.696 232.269 32.904L233.403 26.394ZM245.028 37.44C244.972 37.804 244.93 38.14 244.902 38.448C244.874 38.728 244.86 38.98 244.86 39.204C244.86 40.156 245.14 40.898 245.7 41.43C246.288 41.962 247.058 42.228 248.01 42.228C248.486 42.228 248.962 42.172 249.438 42.06C249.914 41.948 250.348 41.794 250.74 41.598L251.118 44.664C250.614 44.916 250.026 45.112 249.354 45.252C248.682 45.42 247.954 45.504 247.17 45.504C245.49 45.504 244.048 45.028 242.844 44.076C241.668 43.096 241.08 41.626 241.08 39.666C241.08 38.938 241.136 38.224 241.248 37.524L245.364 13.92H249.144L245.028 37.44ZM257.564 37.44C257.508 37.804 257.466 38.14 257.438 38.448C257.41 38.728 257.396 38.98 257.396 39.204C257.396 40.156 257.676 40.898 258.236 41.43C258.824 41.962 259.594 42.228 260.546 42.228C261.022 42.228 261.498 42.172 261.974 42.06C262.45 41.948 262.884 41.794 263.276 41.598L263.654 44.664C263.15 44.916 262.562 45.112 261.89 45.252C261.218 45.42 260.49 45.504 259.706 45.504C258.026 45.504 256.584 45.028 255.38 44.076C254.204 43.096 253.616 41.626 253.616 39.666C253.616 38.938 253.672 38.224 253.784 37.524L257.9 13.92H261.68L257.564 37.44ZM290.783 45.504C288.151 45.504 285.925 44.93 284.105 43.782C282.285 42.634 280.899 41.094 279.947 39.162C278.995 37.202 278.519 35.018 278.519 32.61C278.519 30.37 278.869 28.214 279.569 26.142C280.269 24.042 281.291 22.166 282.635 20.514C284.007 18.834 285.673 17.518 287.633 16.566C289.593 15.586 291.833 15.096 294.353 15.096C296.985 15.096 299.211 15.67 301.031 16.818C302.851 17.966 304.237 19.52 305.189 21.48C306.141 23.412 306.617 25.582 306.617 27.99C306.617 30.23 306.267 32.4 305.567 34.5C304.867 36.572 303.831 38.448 302.459 40.128C301.115 41.78 299.463 43.096 297.503 44.076C295.543 45.028 293.303 45.504 290.783 45.504ZM294.017 18.54C292.225 18.54 290.615 18.918 289.187 19.674C287.787 20.43 286.597 21.466 285.617 22.782C284.637 24.098 283.881 25.582 283.349 27.234C282.845 28.886 282.593 30.594 282.593 32.358C282.593 34.15 282.915 35.788 283.559 37.272C284.203 38.728 285.155 39.89 286.415 40.758C287.703 41.626 289.271 42.06 291.119 42.06C292.911 42.06 294.507 41.682 295.907 40.926C297.335 40.17 298.539 39.134 299.519 37.818C300.499 36.502 301.241 35.018 301.745 33.366C302.277 31.714 302.543 30.006 302.543 28.242C302.543 26.45 302.221 24.826 301.577 23.37C300.933 21.886 299.981 20.71 298.721 19.842C297.461 18.974 295.893 18.54 294.017 18.54ZM317.129 23.958H323.597L323.009 27.234H316.541L312.845 48.024C312.397 50.488 311.557 52.224 310.325 53.232C309.121 54.24 307.651 54.744 305.915 54.744C304.991 54.744 304.151 54.618 303.395 54.366C302.611 54.114 301.925 53.764 301.337 53.316L302.849 50.208C303.241 50.572 303.703 50.866 304.235 51.09C304.767 51.342 305.341 51.468 305.957 51.468C306.713 51.468 307.371 51.202 307.931 50.67C308.491 50.138 308.869 49.284 309.065 48.108L312.761 27.234H309.401L309.989 23.958H313.349L313.979 20.598C314.455 18.022 315.365 16.188 316.709 15.096C318.081 13.976 319.803 13.416 321.875 13.416C323.023 13.416 324.087 13.57 325.067 13.878C326.047 14.158 326.929 14.508 327.713 14.928L326.243 18.12C325.599 17.784 324.927 17.476 324.227 17.196C323.555 16.916 322.757 16.776 321.833 16.776C320.797 16.776 319.915 17.084 319.187 17.7C318.459 18.288 317.983 19.212 317.759 20.472L317.129 23.958ZM340.812 15.6H344.802L340.266 41.43H353.748L353.118 45H335.646L340.812 15.6ZM365.723 45.504C363.651 45.504 361.859 45.084 360.347 44.244C358.835 43.404 357.659 42.242 356.819 40.758C356.007 39.246 355.601 37.538 355.601 35.634C355.601 33.198 356.091 31 357.071 29.04C358.079 27.08 359.479 25.526 361.271 24.378C363.063 23.23 365.177 22.656 367.613 22.656C369.685 22.656 371.477 23.076 372.989 23.916C374.501 24.756 375.663 25.918 376.475 27.402C377.315 28.886 377.735 30.594 377.735 32.526C377.735 34.934 377.245 37.132 376.265 39.12C375.285 41.08 373.885 42.634 372.065 43.782C370.273 44.93 368.159 45.504 365.723 45.504ZM365.849 42.144C367.529 42.144 368.957 41.738 370.133 40.926C371.337 40.086 372.261 38.966 372.905 37.566C373.549 36.166 373.871 34.598 373.871 32.862C373.871 31.574 373.619 30.426 373.115 29.418C372.611 28.382 371.883 27.556 370.931 26.94C369.979 26.324 368.831 26.016 367.487 26.016C365.835 26.016 364.407 26.436 363.203 27.276C361.999 28.088 361.075 29.194 360.431 30.594C359.787 31.994 359.465 33.562 359.465 35.298C359.465 36.558 359.717 37.706 360.221 38.742C360.725 39.778 361.453 40.604 362.405 41.22C363.357 41.836 364.505 42.144 365.849 42.144ZM379.58 23.664L383.15 22.74L387.476 40.8L397.934 22.74L401 24.546L388.736 45H384.83L379.58 23.664ZM409.727 45.504C407.879 45.504 406.241 45.112 404.813 44.328C403.413 43.516 402.307 42.368 401.495 40.884C400.711 39.372 400.319 37.594 400.319 35.55C400.319 33.226 400.795 31.084 401.747 29.124C402.727 27.164 404.099 25.596 405.863 24.42C407.655 23.244 409.741 22.656 412.121 22.656C413.745 22.656 415.117 22.964 416.237 23.58C417.385 24.196 418.267 24.994 418.883 25.974C419.499 26.954 419.807 28.004 419.807 29.124C419.807 30.664 419.443 31.938 418.715 32.946C417.987 33.954 417.049 34.738 415.901 35.298C414.753 35.83 413.507 36.208 412.163 36.432C410.847 36.656 409.587 36.768 408.383 36.768C407.627 36.768 406.871 36.74 406.115 36.684C405.387 36.6 404.743 36.516 404.183 36.432C404.407 38.28 405.065 39.694 406.157 40.674C407.249 41.654 408.649 42.144 410.357 42.144C411.757 42.144 413.003 41.962 414.095 41.598C415.187 41.234 416.111 40.87 416.867 40.506L417.203 43.866C416.363 44.258 415.299 44.636 414.011 45C412.723 45.336 411.295 45.504 409.727 45.504ZM411.827 25.848C410.511 25.848 409.321 26.184 408.257 26.856C407.193 27.5 406.311 28.396 405.611 29.544C404.939 30.664 404.491 31.952 404.267 33.408C404.911 33.52 405.555 33.618 406.199 33.702C406.871 33.758 407.599 33.786 408.383 33.786C410.735 33.786 412.597 33.464 413.969 32.82C415.341 32.148 416.027 31.014 416.027 29.418C416.027 28.438 415.635 27.598 414.851 26.898C414.095 26.198 413.087 25.848 411.827 25.848Z" fill="#2B2F34"/>
<path d="M126.908 89.36C125.792 89.36 124.808 89.084 123.956 88.532C123.116 87.98 122.468 87.224 122.012 86.264C121.556 85.304 121.328 84.236 121.328 83.06C121.328 81.884 121.556 80.816 122.012 79.856C122.468 78.896 123.116 78.14 123.956 77.588C124.808 77.036 125.792 76.76 126.908 76.76C128.024 76.76 129.002 77.036 129.842 77.588C130.694 78.14 131.348 78.896 131.804 79.856C132.26 80.816 132.488 81.884 132.488 83.06C132.488 84.236 132.26 85.304 131.804 86.264C131.348 87.224 130.694 87.98 129.842 88.532C129.002 89.084 128.024 89.36 126.908 89.36ZM126.908 88.64C127.688 88.64 128.36 88.412 128.924 87.956C129.5 87.5 129.938 86.858 130.238 86.03C130.538 85.19 130.688 84.2 130.688 83.06C130.688 81.92 130.538 80.936 130.238 80.108C129.938 79.268 129.5 78.62 128.924 78.164C128.36 77.708 127.688 77.48 126.908 77.48C126.128 77.48 125.45 77.708 124.874 78.164C124.31 78.62 123.878 79.268 123.578 80.108C123.278 80.936 123.128 81.92 123.128 83.06C123.128 84.2 123.278 85.19 123.578 86.03C123.878 86.858 124.31 87.5 124.874 87.956C125.45 88.412 126.128 88.64 126.908 88.64ZM138.048 89.18C137.148 89.18 136.41 88.94 135.834 88.46C135.27 87.98 134.988 87.14 134.988 85.94V82.7C134.988 82.088 134.904 81.638 134.736 81.35C134.568 81.05 134.232 80.9 133.728 80.9H133.548V80.54H134.988C135.432 80.54 135.762 80.6 135.978 80.72C136.206 80.828 136.368 81.032 136.464 81.332C136.56 81.632 136.608 82.088 136.608 82.7V85.94C136.608 86.78 136.794 87.398 137.166 87.794C137.55 88.178 138.024 88.37 138.588 88.37C139.224 88.37 139.824 88.052 140.388 87.416V80.54H142.008V89H141.108L140.478 88.28H140.388C140.136 88.532 139.806 88.748 139.398 88.928C139.002 89.096 138.552 89.18 138.048 89.18ZM145.107 82.7C145.107 82.088 145.023 81.638 144.855 81.35C144.687 81.05 144.351 80.9 143.847 80.9H143.667V80.54H145.107C145.563 80.54 145.905 80.606 146.133 80.738C146.373 80.858 146.541 81.062 146.637 81.35H146.727C146.943 81.074 147.231 80.84 147.591 80.648C147.963 80.456 148.395 80.36 148.887 80.36C149.367 80.36 149.727 80.45 149.967 80.63C150.171 80.786 150.381 81.056 150.597 81.44L149.877 81.98C149.745 81.8 149.553 81.668 149.301 81.584C149.049 81.488 148.761 81.44 148.437 81.44C148.077 81.44 147.747 81.524 147.447 81.692C147.147 81.848 146.907 82.064 146.727 82.34V89H145.107V82.7ZM167.238 89.09C166.662 89.09 166.092 88.934 165.528 88.622C164.964 88.298 164.514 87.674 164.178 86.75L163.728 85.58H158.688L157.248 89H156.438L161.478 77.12H162.018L165.978 86.75C166.278 87.446 166.56 87.926 166.824 88.19C167.088 88.442 167.466 88.592 167.958 88.64V89C167.742 89.06 167.502 89.09 167.238 89.09ZM163.368 84.86L161.208 79.64L158.958 84.86H163.368ZM169.195 79.28C169.195 78.668 169.111 78.218 168.943 77.93C168.775 77.63 168.439 77.48 167.935 77.48H167.575V77.12H169.195C169.639 77.12 169.969 77.18 170.185 77.3C170.413 77.408 170.575 77.612 170.671 77.912C170.767 78.212 170.815 78.668 170.815 79.28V89H169.195V79.28ZM176.921 89.18C176.021 89.18 175.283 88.94 174.707 88.46C174.143 87.98 173.861 87.14 173.861 85.94V82.7C173.861 82.088 173.777 81.638 173.609 81.35C173.441 81.05 173.105 80.9 172.601 80.9H172.421V80.54H173.861C174.305 80.54 174.635 80.6 174.851 80.72C175.079 80.828 175.241 81.032 175.337 81.332C175.433 81.632 175.481 82.088 175.481 82.7V85.94C175.481 86.78 175.667 87.398 176.039 87.794C176.423 88.178 176.897 88.37 177.461 88.37C178.097 88.37 178.697 88.052 179.261 87.416V80.54H180.881V89H179.981L179.351 88.28H179.261C179.009 88.532 178.679 88.748 178.271 88.928C177.875 89.096 177.425 89.18 176.921 89.18ZM184.106 82.7C184.106 82.088 184.022 81.638 183.854 81.35C183.686 81.05 183.35 80.9 182.846 80.9H182.486V80.54H184.106C184.55 80.54 184.886 80.6 185.114 80.72C185.354 80.84 185.528 81.02 185.636 81.26H185.726C185.978 81.008 186.302 80.798 186.698 80.63C187.106 80.45 187.562 80.36 188.066 80.36C188.57 80.36 189.002 80.456 189.362 80.648C189.722 80.828 190.01 81.152 190.226 81.62C190.538 81.224 190.934 80.918 191.414 80.702C191.906 80.474 192.41 80.36 192.926 80.36C193.694 80.36 194.306 80.6 194.762 81.08C195.218 81.56 195.446 82.4 195.446 83.6V89H193.826V83.6C193.826 82.736 193.706 82.118 193.466 81.746C193.226 81.362 192.866 81.17 192.386 81.17C192.05 81.17 191.696 81.296 191.324 81.548C190.952 81.788 190.676 82.052 190.496 82.34C190.556 82.52 190.586 82.94 190.586 83.6V89H188.966V83.6C188.966 82.736 188.846 82.118 188.606 81.746C188.366 81.362 188.006 81.17 187.526 81.17C186.89 81.17 186.29 81.488 185.726 82.124V89H184.106V82.7ZM198.598 82.7C198.598 82.088 198.514 81.638 198.346 81.35C198.178 81.05 197.842 80.9 197.338 80.9H196.978V80.54H198.598C199.042 80.54 199.378 80.6 199.606 80.72C199.846 80.84 200.02 81.02 200.128 81.26H200.218C200.47 81.008 200.794 80.798 201.19 80.63C201.598 80.45 202.054 80.36 202.558 80.36C203.458 80.36 204.19 80.6 204.754 81.08C205.33 81.56 205.618 82.4 205.618 83.6V89H203.998V83.6C203.998 82.76 203.806 82.148 203.422 81.764C203.05 81.368 202.582 81.17 202.018 81.17C201.382 81.17 200.782 81.488 200.218 82.124V89H198.598V82.7ZM209.433 79.46C209.157 79.46 208.917 79.346 208.713 79.118C208.521 78.89 208.425 78.62 208.425 78.308C208.425 78.056 208.497 77.858 208.641 77.714C208.797 77.57 209.001 77.498 209.253 77.498C209.529 77.498 209.763 77.612 209.955 77.84C210.159 78.068 210.261 78.338 210.261 78.65C210.261 78.902 210.183 79.1 210.027 79.244C209.883 79.388 209.685 79.46 209.433 79.46ZM208.749 82.7C208.749 82.088 208.665 81.638 208.497 81.35C208.329 81.05 207.993 80.9 207.489 80.9H207.129V80.54H208.749C209.193 80.54 209.523 80.6 209.739 80.72C209.967 80.828 210.129 81.032 210.225 81.332C210.321 81.632 210.369 82.088 210.369 82.7V89H208.749V82.7ZM221.909 89.306C221.249 89.306 220.601 89.216 219.965 89.036C219.329 88.856 218.807 88.598 218.399 88.262C218.003 87.926 217.805 87.542 217.805 87.11V85.184H218.129C218.333 86.384 218.729 87.254 219.317 87.794C219.905 88.322 220.715 88.586 221.747 88.586C222.395 88.586 222.947 88.424 223.403 88.1C223.871 87.776 224.105 87.326 224.105 86.75C224.105 86.246 223.949 85.808 223.637 85.436C223.325 85.064 222.821 84.674 222.125 84.266L219.911 82.952C219.143 82.496 218.597 82.034 218.273 81.566C217.961 81.098 217.805 80.528 217.805 79.856C217.805 78.932 218.123 78.194 218.759 77.642C219.407 77.078 220.253 76.796 221.297 76.796C221.909 76.796 222.515 76.886 223.115 77.066C223.715 77.234 224.207 77.486 224.591 77.822C224.987 78.146 225.185 78.524 225.185 78.956V80.882H224.861C224.657 79.682 224.267 78.824 223.691 78.308C223.127 77.78 222.329 77.516 221.297 77.516C220.745 77.516 220.259 77.684 219.839 78.02C219.419 78.356 219.209 78.794 219.209 79.334C219.209 79.826 219.359 80.234 219.659 80.558C219.971 80.882 220.487 81.26 221.207 81.692L223.421 83.006C224.237 83.498 224.813 83.954 225.149 84.374C225.485 84.794 225.653 85.328 225.653 85.976C225.653 86.984 225.317 87.794 224.645 88.406C223.973 89.006 223.061 89.306 221.909 89.306ZM230.103 89.18C229.719 89.18 229.329 89.102 228.933 88.946C228.537 88.778 228.195 88.508 227.907 88.136C227.631 87.764 227.493 87.272 227.493 86.66C227.493 85.748 227.913 85.1 228.753 84.716C229.605 84.332 230.715 84.14 232.083 84.14H232.623C232.623 82.964 232.461 82.16 232.137 81.728C231.813 81.296 231.345 81.08 230.733 81.08C230.193 81.08 229.761 81.194 229.437 81.422C229.113 81.65 228.885 82.046 228.753 82.61H227.943C227.943 82.202 227.967 81.884 228.015 81.656C228.063 81.416 228.189 81.194 228.393 80.99C228.609 80.774 228.963 80.618 229.455 80.522C229.959 80.414 230.505 80.36 231.093 80.36C232.065 80.36 232.833 80.624 233.397 81.152C233.961 81.668 234.243 82.664 234.243 84.14V89H233.343L232.713 88.19H232.623C232.407 88.466 232.089 88.7 231.669 88.892C231.249 89.084 230.727 89.18 230.103 89.18ZM230.913 88.37C231.309 88.37 231.639 88.274 231.903 88.082C232.167 87.89 232.407 87.626 232.623 87.29V84.86H232.083C231.195 84.86 230.493 85.028 229.977 85.364C229.461 85.688 229.203 86.12 229.203 86.66C229.203 87.212 229.365 87.638 229.689 87.938C230.025 88.226 230.433 88.37 230.913 88.37ZM237.531 92.06C238.119 92.06 238.599 91.922 238.971 91.646C239.355 91.382 239.685 90.89 239.961 90.17L240.321 89.18L237.441 82.16C237.105 81.296 236.445 80.816 235.461 80.72V80.36H236.991C238.035 80.36 238.755 80.84 239.151 81.8L241.203 86.786L243.471 80.54H244.371L240.861 90.17C240.513 91.118 240.129 91.76 239.709 92.096C239.289 92.432 238.743 92.6 238.071 92.6H237.531V92.06ZM252.357 79.46C252.081 79.46 251.841 79.346 251.637 79.118C251.445 78.89 251.349 78.62 251.349 78.308C251.349 78.056 251.421 77.858 251.565 77.714C251.721 77.57 251.925 77.498 252.177 77.498C252.453 77.498 252.687 77.612 252.879 77.84C253.083 78.068 253.185 78.338 253.185 78.65C253.185 78.902 253.107 79.1 252.951 79.244C252.807 79.388 252.609 79.46 252.357 79.46ZM251.673 82.7C251.673 82.088 251.589 81.638 251.421 81.35C251.253 81.05 250.917 80.9 250.413 80.9H250.053V80.54H251.673C252.117 80.54 252.447 80.6 252.663 80.72C252.891 80.828 253.053 81.032 253.149 81.332C253.245 81.632 253.293 82.088 253.293 82.7V89H251.673V82.7ZM258.695 89.18C258.023 89.18 257.495 88.988 257.111 88.604C256.727 88.22 256.535 87.632 256.535 86.84V81.26H255.275V80.54H256.535V78.92L257.435 77.84H258.155V80.54H260.315V81.26H258.155V86.84C258.155 87.92 258.575 88.46 259.415 88.46C259.703 88.46 259.943 88.43 260.135 88.37C260.339 88.31 260.549 88.22 260.765 88.1L260.945 88.46C260.669 88.664 260.363 88.838 260.027 88.982C259.691 89.114 259.247 89.18 258.695 89.18ZM268.107 79.28C268.107 78.668 268.023 78.218 267.855 77.93C267.687 77.63 267.351 77.48 266.847 77.48H266.487V77.12H271.167C272.475 77.12 273.609 77.336 274.569 77.768C275.541 78.2 276.027 79.034 276.027 80.27C276.027 80.834 275.835 81.344 275.451 81.8C275.067 82.256 274.479 82.616 273.687 82.88C274.791 83.06 275.559 83.39 275.991 83.87C276.435 84.338 276.657 84.968 276.657 85.76C276.657 86.972 276.177 87.818 275.217 88.298C274.269 88.766 273.099 89 271.707 89H268.107V79.28ZM271.437 82.61C271.929 82.61 272.391 82.52 272.823 82.34C273.267 82.148 273.627 81.872 273.903 81.512C274.179 81.14 274.317 80.696 274.317 80.18C274.317 79.64 274.155 79.19 273.831 78.83C273.507 78.458 273.093 78.188 272.589 78.02C272.097 77.84 271.593 77.75 271.077 77.75C270.657 77.75 270.207 77.81 269.727 77.93V82.61H271.437ZM271.437 88.37C272.529 88.37 273.369 88.154 273.957 87.722C274.557 87.29 274.857 86.666 274.857 85.85C274.857 85.034 274.563 84.41 273.975 83.978C273.399 83.546 272.553 83.33 271.437 83.33H269.727V88.118C270.303 88.286 270.873 88.37 271.437 88.37ZM282.346 89.18C281.53 89.18 280.84 88.988 280.276 88.604C279.712 88.208 279.286 87.68 278.998 87.02C278.71 86.348 278.566 85.598 278.566 84.77C278.566 83.954 278.71 83.21 278.998 82.538C279.286 81.866 279.7 81.338 280.24 80.954C280.792 80.558 281.434 80.36 282.166 80.36C283.378 80.36 284.278 80.702 284.866 81.386C285.466 82.058 285.766 83.036 285.766 84.32L285.73 85.04H280.276C280.276 86.048 280.492 86.87 280.924 87.506C281.356 88.142 281.95 88.46 282.706 88.46C283.27 88.46 283.744 88.34 284.128 88.1C284.524 87.86 284.89 87.5 285.226 87.02L285.586 87.29C285.19 87.95 284.728 88.43 284.2 88.73C283.672 89.03 283.054 89.18 282.346 89.18ZM284.056 84.32C284.056 83.264 283.9 82.46 283.588 81.908C283.276 81.356 282.802 81.08 282.166 81.08C281.806 81.08 281.482 81.224 281.194 81.512C280.906 81.788 280.678 82.172 280.51 82.664C280.354 83.156 280.276 83.708 280.276 84.32H284.056ZM291.027 89.18C289.647 89.18 288.717 88.94 288.237 88.46C288.033 88.256 287.907 88.028 287.859 87.776C287.811 87.512 287.787 87.11 287.787 86.57H288.147C288.255 87.17 288.513 87.638 288.921 87.974C289.341 88.298 289.923 88.46 290.667 88.46C291.327 88.46 291.819 88.346 292.143 88.118C292.479 87.89 292.647 87.584 292.647 87.2C292.647 86.852 292.515 86.552 292.251 86.3C291.999 86.048 291.591 85.808 291.027 85.58L289.947 85.13C289.227 84.842 288.687 84.506 288.327 84.122C287.967 83.738 287.787 83.264 287.787 82.7C287.787 81.968 288.063 81.398 288.615 80.99C289.167 80.57 289.881 80.36 290.757 80.36C292.077 80.36 292.977 80.6 293.457 81.08C293.661 81.284 293.787 81.512 293.835 81.764C293.883 82.016 293.907 82.418 293.907 82.97H293.547C293.451 82.37 293.199 81.908 292.791 81.584C292.383 81.248 291.825 81.08 291.117 81.08C290.553 81.08 290.109 81.2 289.785 81.44C289.473 81.668 289.317 81.968 289.317 82.34C289.317 82.964 289.797 83.474 290.757 83.87L291.837 84.32C292.653 84.656 293.247 85.016 293.619 85.4C293.991 85.772 294.177 86.252 294.177 86.84C294.177 87.572 293.883 88.148 293.295 88.568C292.707 88.976 291.951 89.18 291.027 89.18ZM299.096 89.18C298.424 89.18 297.896 88.988 297.512 88.604C297.128 88.22 296.936 87.632 296.936 86.84V81.26H295.676V80.54H296.936V78.92L297.836 77.84H298.556V80.54H300.716V81.26H298.556V86.84C298.556 87.92 298.976 88.46 299.816 88.46C300.104 88.46 300.344 88.43 300.536 88.37C300.74 88.31 300.95 88.22 301.166 88.1L301.346 88.46C301.07 88.664 300.764 88.838 300.428 88.982C300.092 89.114 299.648 89.18 299.096 89.18Z" fill="#595959"/>
</svg>
